{"glyphs":{"0":{"ha":917,"x_min":24,"x_max":888,"o":"m 841 534 q 871 522 854 529 q 888 509 886 515 q 888 492 888 503 q 872 480 888 487 q 844 469 857 473 q 841 442 842 456 q 837 416 838 430 q 863 397 849 408 q 875 380 875 387 q 871 363 873 374 q 853 357 869 358 q 822 354 837 354 q 814 330 818 342 q 804 305 810 317 q 826 278 815 293 q 833 258 836 263 q 826 244 830 254 q 807 243 823 240 q 777 250 791 245 q 764 228 770 239 q 750 206 757 217 q 764 175 757 191 q 768 153 770 157 q 757 142 764 149 q 739 146 754 138 q 711 161 724 153 q 693 145 703 153 q 674 129 684 137 q 681 94 678 113 q 680 72 685 75 q 667 64 675 69 q 651 73 663 61 q 627 96 637 85 q 606 87 617 91 q 585 77 595 81 q 582 41 583 60 q 576 19 581 22 q 563 16 571 19 q 547 30 556 15 q 530 61 537 46 q 507 57 518 58 q 486 54 496 56 q 475 20 480 38 q 464 3 468 3 q 450 3 460 3 q 438 20 445 3 q 429 54 433 38 q 407 57 418 56 q 384 61 395 58 q 366 30 376 46 q 351 16 355 14 q 338 19 347 18 q 331 41 332 22 q 328 77 328 60 q 308 87 319 81 q 288 96 298 91 q 263 73 277 85 q 247 64 251 61 q 235 72 243 66 q 233 94 231 75 q 239 129 235 113 q 221 145 229 137 q 203 161 212 153 q 175 146 190 153 q 156 142 159 138 q 145 153 152 145 q 148 175 141 157 q 163 208 156 193 q 149 228 156 217 q 136 250 142 239 q 104 243 121 245 q 85 244 88 240 q 77 258 83 248 q 85 278 75 263 q 107 305 96 293 q 98 330 102 317 q 90 354 94 342 q 58 357 75 355 q 41 363 42 358 q 37 380 39 369 q 50 397 35 387 q 76 418 64 410 q 72 444 73 431 q 69 471 71 457 q 39 481 56 475 q 24 494 24 488 q 24 510 24 499 q 39 522 24 515 q 69 534 56 529 q 72 560 71 547 q 76 586 73 574 q 49 606 62 595 q 37 624 35 618 q 41 640 38 629 q 58 648 42 646 q 90 650 75 650 q 98 674 94 662 q 107 699 102 686 q 85 726 96 711 q 77 746 75 742 q 85 760 80 750 q 104 762 88 765 q 136 755 121 758 q 149 776 142 765 q 163 796 156 785 q 148 829 156 811 q 145 850 141 846 q 156 861 149 853 q 174 857 159 865 q 202 841 189 849 q 220 857 210 849 q 237 873 228 865 q 232 909 235 890 q 233 930 229 928 q 245 940 237 933 q 262 930 250 943 q 285 907 275 920 q 307 918 296 913 q 328 928 316 922 q 331 963 328 944 q 338 982 332 981 q 351 986 342 983 q 366 972 355 987 q 382 943 376 958 q 406 947 393 945 q 427 949 416 948 q 438 985 433 967 q 449 1002 444 1002 q 463 1002 453 1002 q 473 983 468 1002 q 484 949 480 966 q 506 948 495 948 q 529 944 517 947 q 545 974 536 958 q 560 987 555 989 q 574 982 564 986 q 581 962 578 981 q 582 926 582 943 q 604 917 594 922 q 625 906 614 911 q 648 929 635 917 q 665 939 661 941 q 677 929 669 936 q 678 909 681 926 q 673 873 675 890 q 690 857 681 865 q 708 841 700 849 q 736 857 722 849 q 754 861 751 865 q 765 849 758 857 q 761 827 768 845 q 747 795 754 810 q 761 774 754 784 q 774 753 768 764 q 804 760 788 755 q 823 757 821 762 q 830 743 826 753 q 822 724 833 739 q 802 697 812 709 q 811 674 807 686 q 819 648 815 662 q 850 646 834 648 q 868 639 867 644 q 872 623 869 633 q 860 606 873 618 q 834 586 846 595 q 838 560 837 574 q 841 534 840 547 m 144 503 q 170 358 144 426 q 240 240 195 289 q 339 401 274 294 q 312 448 321 422 q 302 502 302 473 q 347 610 302 566 q 456 655 392 655 q 473 655 464 655 q 491 652 481 654 q 597 826 526 711 q 529 856 564 845 q 456 865 494 865 q 369 850 411 865 q 292 811 327 837 q 184 682 225 764 q 144 503 144 601 m 376 502 q 403 442 376 463 q 456 422 429 422 q 509 444 483 422 q 534 502 536 467 q 511 559 534 537 q 456 581 488 581 q 399 559 420 581 q 376 502 376 537 m 456 140 q 609 187 540 140 q 720 312 680 235 q 755 401 743 354 q 768 503 768 450 q 742 646 768 579 q 674 761 718 712 q 575 598 642 707 q 600 553 591 578 q 609 502 609 529 q 564 393 609 438 q 456 349 519 349 q 441 349 448 349 q 427 351 434 350 q 320 176 392 293 q 385 149 350 159 q 456 140 419 140 z "},"1":{"ha":528,"x_min":28,"x_max":502,"o":"m 502 62 q 502 0 502 42 q 332 0 445 0 q 274 0 313 0 q 140 0 229 0 q 140 62 140 20 q 172 87 157 72 q 191 132 186 103 q 274 132 220 132 q 278 913 275 392 q 250 913 269 913 q 194 882 214 907 q 157 819 172 854 q 88 728 134 789 q 66 728 81 728 q 66 914 66 789 q 57 941 66 932 q 28 951 47 951 q 28 998 28 967 q 372 998 142 998 q 372 132 372 709 q 450 132 397 132 q 469 88 456 104 q 502 62 484 72 z "},"2":{"ha":610,"x_min":23,"x_max":616,"o":"m 155 121 q 239 75 189 87 q 342 65 289 62 q 484 106 420 71 q 548 190 548 140 q 586 190 562 190 q 586 121 586 167 q 586 38 586 94 q 309 0 450 0 q 23 38 168 1 q 23 130 23 69 q 183 220 103 153 q 330 373 264 286 q 437 549 393 457 q 490 722 480 642 q 487 803 494 765 q 458 868 479 840 q 296 910 382 914 q 115 868 209 906 q 72 837 87 854 q 61 799 57 821 q 23 799 49 799 q 23 868 23 822 q 133 951 60 895 q 149 951 138 951 q 149 967 149 956 q 153 971 151 970 q 159 975 156 974 q 174 971 165 977 q 189 974 180 966 q 191 987 190 981 q 194 1001 194 993 q 201 1004 198 1002 q 209 1005 205 1004 q 216 997 213 1000 q 222 990 218 994 q 229 993 225 990 q 236 996 232 994 q 237 1006 237 1001 q 239 1017 239 1012 q 248 1017 244 1017 q 258 1019 254 1017 q 263 1012 260 1016 q 270 1006 266 1008 q 277 1008 274 1008 q 285 1009 281 1008 q 288 1020 286 1015 q 290 1029 289 1024 q 309 1029 297 1029 q 315 1019 313 1024 q 320 1010 317 1015 q 326 1012 323 1010 q 331 1012 327 1012 q 335 1021 332 1019 q 338 1029 336 1025 q 362 1029 346 1029 q 366 1020 365 1024 q 369 1012 369 1016 q 374 1009 372 1010 q 380 1008 377 1009 q 384 1016 381 1012 q 388 1025 385 1020 q 400 1024 393 1024 q 414 1023 408 1024 q 416 1010 415 1016 q 419 998 418 1004 q 430 998 423 998 q 438 1008 435 1004 q 446 1015 442 1012 q 456 1010 452 1013 q 463 1006 458 1008 q 467 989 465 998 q 469 978 469 978 q 499 962 481 972 q 515 951 515 951 q 552 924 533 937 q 587 897 570 910 q 609 867 602 888 q 616 819 616 848 q 616 812 616 815 q 589 663 613 751 q 519 483 563 575 q 434 335 483 407 q 330 213 387 264 q 245 152 289 176 q 155 121 201 127 z "},"3":{"ha":666,"x_min":28,"x_max":639,"o":"m 593 894 q 639 749 639 823 q 633 697 639 723 q 553 503 613 595 q 589 457 574 480 q 616 407 605 434 q 633 286 636 358 q 593 104 629 216 q 556 77 575 91 q 521 50 538 64 q 503 39 521 50 q 475 23 487 28 q 472 12 475 23 q 468 -5 469 3 q 460 -9 464 -7 q 452 -14 457 -12 q 444 -7 448 -11 q 435 3 439 -3 q 425 3 433 3 q 422 -9 423 -3 q 419 -22 420 -15 q 406 -23 412 -23 q 393 -24 399 -23 q 388 -15 391 -19 q 384 -7 387 -11 q 380 -8 382 -8 q 374 -11 377 -9 q 372 -19 373 -15 q 368 -28 370 -23 q 343 -28 359 -28 q 340 -20 342 -24 q 336 -11 338 -18 q 330 -11 332 -11 q 324 -9 328 -9 q 320 -18 323 -14 q 315 -28 319 -23 q 296 -28 308 -28 q 293 -19 294 -23 q 290 -8 292 -14 q 282 -7 286 -7 q 275 -5 279 -7 q 269 -11 271 -7 q 263 -18 266 -15 q 254 -16 258 -16 q 244 -16 250 -16 q 243 -5 244 -11 q 241 5 243 0 q 233 8 237 7 q 228 11 231 11 q 221 4 224 7 q 213 -4 218 1 q 206 -3 209 -3 q 199 0 203 -1 q 197 14 198 8 q 194 27 195 20 q 178 30 186 35 q 164 26 171 24 q 159 30 161 27 q 153 34 156 31 q 153 50 153 39 q 138 50 149 50 q 28 133 102 79 q 28 202 28 156 q 66 202 41 202 q 77 164 62 180 q 121 133 92 146 q 301 91 214 95 q 464 133 388 87 q 513 227 498 182 q 529 312 529 273 q 477 431 528 385 q 345 476 429 476 q 278 476 321 476 q 231 471 251 476 q 209 418 209 465 q 168 418 195 418 q 168 627 168 487 q 209 627 182 627 q 209 593 209 616 q 222 556 209 557 q 278 555 237 555 q 342 555 298 555 q 400 567 374 555 q 448 597 427 578 q 484 643 469 617 q 507 696 499 667 q 510 795 521 747 q 464 864 500 844 q 301 907 388 911 q 121 864 214 903 q 77 834 92 850 q 66 796 62 817 q 28 796 54 796 q 28 864 28 819 q 138 948 65 892 q 153 948 144 948 q 153 964 153 954 q 159 968 156 966 q 164 972 161 970 q 178 968 171 974 q 194 971 186 963 q 197 983 195 978 q 199 997 198 990 q 206 1000 203 1000 q 213 1002 209 1001 q 221 994 218 997 q 228 986 224 990 q 233 989 231 987 q 241 991 237 991 q 243 1004 243 998 q 244 1015 244 1008 q 254 1015 250 1015 q 263 1016 258 1015 q 269 1008 266 1012 q 275 1004 271 1004 q 282 1005 279 1004 q 290 1006 286 1005 q 293 1016 292 1010 q 296 1027 294 1021 q 315 1027 302 1027 q 320 1016 319 1020 q 324 1008 323 1012 q 330 1008 328 1008 q 336 1009 332 1009 q 340 1019 338 1015 q 343 1027 342 1023 q 368 1027 351 1027 q 372 1017 370 1021 q 374 1009 373 1013 q 380 1006 377 1008 q 384 1005 382 1005 q 388 1013 387 1009 q 393 1023 391 1017 q 406 1021 399 1021 q 419 1020 412 1021 q 422 1006 420 1012 q 425 994 423 1001 q 435 994 429 994 q 444 1004 439 1000 q 452 1012 448 1008 q 460 1008 457 1009 q 468 1004 464 1005 q 472 985 469 994 q 475 975 475 975 q 503 959 487 968 q 521 948 521 948 q 556 921 538 935 q 593 894 575 907 z "},"4":{"ha":612,"x_min":30,"x_max":583,"o":"m 553 416 q 505 416 537 416 q 505 133 505 321 q 509 115 506 127 q 515 85 511 106 q 530 71 521 81 q 540 53 534 65 q 548 37 543 47 q 549 0 548 24 q 388 0 495 0 q 363 0 380 0 q 330 0 353 0 q 330 24 330 8 q 354 61 338 37 q 370 83 359 69 q 376 117 372 95 q 384 142 378 126 q 384 416 384 233 q 30 416 266 416 q 336 1000 132 610 q 404 1000 358 1000 q 525 1000 445 1000 q 582 1000 544 1000 q 505 930 556 977 q 505 514 505 792 q 583 514 530 514 q 568 464 575 490 q 553 416 560 438 m 345 514 q 381 514 357 514 q 381 922 381 650 q 363 922 376 922 q 167 514 298 787 q 213 514 182 514 q 213 491 213 506 q 345 491 258 491 q 345 503 345 498 q 345 514 345 509 z "},"5":{"ha":639,"x_min":31,"x_max":610,"o":"m 583 288 q 583 281 583 285 q 586 273 583 278 q 598 270 591 271 q 610 269 605 269 q 610 258 610 263 q 610 247 610 252 q 600 244 605 247 q 586 241 593 243 q 585 235 586 239 q 585 228 585 232 q 597 224 590 225 q 609 221 602 222 q 608 210 608 216 q 605 198 606 205 q 589 197 597 198 q 574 194 582 195 q 574 187 574 190 q 574 180 574 183 q 585 176 579 179 q 598 171 591 172 q 593 160 595 165 q 587 149 590 153 q 571 146 579 148 q 555 144 563 145 q 552 137 553 140 q 549 130 551 134 q 559 125 555 127 q 570 118 564 121 q 564 107 567 113 q 559 96 563 102 q 544 98 551 96 q 532 100 537 99 q 521 85 515 94 q 525 68 525 76 q 513 66 518 66 q 505 65 509 65 q 467 42 486 54 q 429 22 449 31 q 374 7 401 12 q 316 0 347 0 q 179 37 241 0 q 80 132 117 73 q 49 132 69 132 q 31 141 42 136 q 31 163 31 149 q 49 175 37 167 q 95 175 73 175 q 145 175 118 175 q 217 104 171 132 q 316 77 262 77 q 452 136 395 79 q 507 271 507 191 q 471 339 507 307 q 391 396 433 372 q 305 446 338 427 q 315 464 271 464 q 282 461 315 464 q 231 450 248 460 q 94 998 184 633 q 608 998 266 998 q 594 888 604 962 q 537 914 572 903 q 463 928 503 924 q 312 926 388 937 q 206 888 237 917 q 292 547 235 774 q 301 548 297 548 q 312 548 307 548 q 313 548 312 548 q 313 548 313 548 q 387 538 351 548 q 452 510 420 529 q 477 494 465 502 q 505 476 491 486 q 509 468 507 473 q 514 457 511 464 q 530 456 522 457 q 547 456 538 456 q 552 449 549 453 q 557 442 555 446 q 548 433 553 438 q 538 423 544 429 q 543 419 540 422 q 547 412 545 415 q 559 414 553 414 q 574 415 566 414 q 578 407 575 411 q 582 399 579 403 q 572 391 576 395 q 562 382 567 387 q 564 374 563 378 q 566 366 566 370 q 581 366 574 366 q 595 363 587 365 q 597 354 597 358 q 600 345 598 350 q 587 339 593 342 q 576 334 582 336 q 578 328 576 330 q 581 321 579 326 q 593 317 586 320 q 606 313 600 316 q 606 307 606 309 q 606 297 606 302 q 595 293 601 296 q 583 288 590 290 z "},"6":{"ha":610,"x_min":33,"x_max":576,"o":"m 315 551 q 499 469 422 551 q 576 275 576 388 q 499 81 576 161 q 315 0 422 0 q 134 76 209 0 q 57 266 60 152 q 56 264 57 264 q 56 667 56 399 q 53 675 54 671 q 50 684 53 680 q 41 694 45 689 q 33 705 38 700 q 42 719 38 713 q 52 734 46 726 q 33 753 45 739 q 33 760 33 755 q 34 765 34 762 q 46 773 38 772 q 56 787 56 774 q 49 796 52 791 q 41 808 45 802 q 43 815 42 811 q 47 821 45 818 q 58 819 54 819 q 68 819 64 819 q 71 826 69 822 q 73 833 72 830 q 66 842 69 838 q 60 852 64 848 q 66 859 64 856 q 72 867 69 863 q 81 865 77 865 q 90 865 85 864 q 94 872 91 868 q 98 878 95 875 q 92 887 95 882 q 87 895 90 891 q 100 910 91 901 q 111 906 107 907 q 121 903 117 903 q 125 907 123 905 q 127 911 126 909 q 123 922 125 917 q 119 929 122 926 q 138 947 126 935 q 148 943 142 945 q 156 939 153 941 q 160 941 157 940 q 165 943 164 943 q 163 952 164 947 q 159 962 160 956 q 170 970 164 966 q 179 978 174 974 q 191 971 186 974 q 202 964 197 968 q 210 972 205 967 q 209 985 209 978 q 209 994 209 990 q 218 998 214 997 q 227 1000 222 1000 q 240 991 233 996 q 251 986 245 989 q 252 983 251 985 q 335 996 292 997 q 425 978 378 996 q 549 914 465 956 q 534 882 544 903 q 427 898 499 887 q 369 917 397 911 q 313 922 340 922 q 281 918 300 922 q 252 909 260 914 q 179 838 206 886 q 146 736 152 792 q 146 486 146 652 q 224 533 180 517 q 315 551 266 551 m 315 77 q 449 133 397 77 q 502 275 500 187 q 449 418 502 362 q 315 472 397 472 q 179 418 231 472 q 126 275 126 362 q 179 133 126 187 q 315 77 231 77 z "},"7":{"ha":583,"x_min":26,"x_max":549,"o":"m 290 126 q 290 96 290 117 q 315 76 298 90 q 334 57 321 71 q 334 1 334 38 q 109 1 259 1 q 109 62 109 22 q 129 92 115 72 q 149 95 136 92 q 149 122 149 103 q 167 140 155 129 q 408 863 247 381 q 302 901 377 891 q 156 902 229 910 q 83 887 117 897 q 27 863 49 878 q 27 1000 27 909 q 26 1000 26 1000 q 549 1000 199 1000 q 281 142 460 715 q 286 134 283 138 q 290 126 289 130 z "},"8":{"ha":556,"x_min":31,"x_max":525,"o":"m 487 148 q 500 134 494 142 q 503 121 506 127 q 502 118 503 119 q 500 114 500 117 q 488 113 498 111 q 471 114 479 113 q 463 100 465 107 q 454 90 458 95 q 464 73 458 81 q 467 64 469 65 q 461 58 465 62 q 452 60 458 56 q 435 65 444 62 q 423 54 430 60 q 412 45 418 50 q 418 28 415 37 q 416 19 419 20 q 410 14 414 18 q 400 18 408 12 q 388 26 393 22 q 374 18 381 22 q 359 11 368 14 q 361 -5 361 3 q 357 -14 359 -12 q 349 -16 354 -15 q 340 -11 346 -18 q 331 1 335 -5 q 316 -1 323 0 q 300 -4 308 -3 q 296 -20 298 -12 q 290 -30 293 -28 q 282 -30 288 -30 q 277 -22 279 -30 q 269 -5 273 -14 q 252 -4 259 -4 q 237 -3 244 -4 q 229 -18 233 -11 q 221 -24 224 -24 q 213 -23 218 -24 q 209 -15 209 -23 q 206 1 208 -7 q 76 62 163 22 q 54 119 69 81 q 393 842 167 361 q 373 888 387 857 q 311 918 353 899 q 231 909 269 925 q 163 845 194 892 q 152 701 130 768 q 244 582 172 636 q 209 505 232 556 q 157 528 191 513 q 161 564 159 540 q 153 570 157 567 q 148 576 151 574 q 133 568 141 571 q 123 567 126 564 q 118 572 122 568 q 118 583 117 574 q 125 600 121 591 q 115 612 119 606 q 107 623 111 617 q 88 617 99 618 q 77 617 79 614 q 72 624 76 618 q 76 633 71 625 q 88 648 83 643 q 80 661 83 655 q 73 673 77 666 q 56 671 65 673 q 46 675 47 671 q 43 684 45 678 q 49 693 42 686 q 62 703 56 699 q 58 718 61 711 q 56 732 57 724 q 39 735 47 732 q 31 742 31 739 q 31 750 31 745 q 38 755 31 751 q 53 762 45 760 q 54 777 54 770 q 54 793 54 785 q 39 800 47 796 q 34 808 33 806 q 35 817 34 811 q 43 821 35 819 q 60 823 52 822 q 64 837 62 830 q 68 852 66 844 q 56 864 62 857 q 50 873 49 871 q 52 878 50 876 q 53 880 52 879 q 64 882 54 883 q 81 880 73 882 q 91 894 87 888 q 99 906 95 899 q 90 921 95 913 q 85 930 84 929 q 94 939 88 933 q 103 939 95 941 q 119 932 111 935 q 130 943 125 937 q 141 952 137 948 q 137 968 138 960 q 137 978 136 977 q 144 983 140 979 q 153 981 146 985 q 167 971 160 977 q 180 979 172 977 q 194 986 187 983 q 194 1002 194 994 q 197 1010 194 1010 q 206 1015 199 1012 q 213 1009 208 1015 q 225 998 218 1004 q 240 1001 232 1000 q 255 1004 247 1002 q 259 1020 256 1012 q 266 1029 262 1028 q 274 1029 269 1029 q 279 1021 275 1029 q 288 1005 283 1015 q 304 1004 296 1005 q 317 1002 311 1004 q 327 1019 323 1010 q 335 1025 331 1025 q 343 1024 338 1024 q 347 1016 346 1024 q 349 1001 347 1008 q 477 940 392 981 q 500 883 486 921 q 163 159 388 642 q 182 111 170 142 q 244 81 203 102 q 324 91 288 75 q 393 156 362 107 q 404 298 426 233 q 311 418 382 363 q 347 496 323 444 q 399 472 365 488 q 393 439 397 461 q 400 433 397 435 q 407 426 404 430 q 420 435 414 431 q 430 437 429 438 q 438 426 433 433 q 437 415 439 425 q 430 399 435 407 q 439 387 435 392 q 449 377 445 381 q 467 381 457 380 q 477 382 476 384 q 483 374 480 380 q 479 365 486 373 q 468 350 473 357 q 476 338 472 343 q 481 327 479 332 q 499 327 490 327 q 510 324 509 327 q 513 315 510 321 q 506 307 514 312 q 494 296 499 300 q 496 281 495 289 q 500 267 499 274 q 517 263 509 266 q 525 256 524 260 q 525 248 525 254 q 518 243 525 247 q 503 236 511 239 q 502 221 502 229 q 502 206 502 213 q 515 198 509 202 q 522 190 524 194 q 521 182 522 187 q 513 178 521 179 q 496 175 505 176 q 491 161 494 168 q 487 148 490 155 z "},"9":{"ha":723,"x_min":33,"x_max":694,"o":"m 689 37 q 694 0 690 24 q 495 0 628 0 q 495 31 495 11 q 518 66 503 42 q 533 88 524 73 q 538 121 536 99 q 548 148 543 130 q 548 529 548 274 q 453 461 507 487 q 335 435 399 435 q 153 500 231 435 q 56 665 75 567 q 53 674 54 670 q 50 682 53 678 q 41 693 45 688 q 33 704 38 699 q 42 718 38 712 q 52 732 46 724 q 33 751 45 738 q 33 758 33 754 q 34 764 34 761 q 46 772 38 770 q 56 785 56 773 q 49 795 52 789 q 41 807 45 800 q 43 814 42 810 q 47 819 45 817 q 58 818 54 818 q 68 818 64 818 q 71 825 69 821 q 73 831 72 829 q 66 841 69 837 q 60 850 64 846 q 66 857 64 854 q 72 865 69 861 q 81 864 77 864 q 90 864 85 863 q 94 871 91 867 q 98 876 95 873 q 92 886 95 880 q 87 894 90 890 q 100 909 91 899 q 110 905 106 906 q 119 902 115 902 q 123 906 122 903 q 127 910 126 907 q 123 921 125 916 q 119 928 122 925 q 138 945 126 933 q 148 941 142 944 q 156 937 153 940 q 156 939 156 939 q 157 939 157 939 q 160 941 159 940 q 164 944 161 944 q 160 952 161 948 q 157 962 159 958 q 168 970 163 966 q 178 978 172 974 q 187 971 183 974 q 198 967 193 968 q 203 970 201 967 q 210 972 208 971 q 209 985 209 978 q 209 994 209 990 q 218 998 214 997 q 227 1000 222 1000 q 239 993 233 997 q 247 987 243 990 q 289 997 267 994 q 332 1000 309 1000 q 480 963 408 1000 q 595 865 551 925 q 632 795 618 833 q 646 715 646 757 q 646 713 646 715 q 646 713 646 713 q 646 712 646 713 q 646 134 646 519 q 650 117 647 129 q 656 85 652 107 q 671 71 662 81 q 682 53 675 65 q 685 45 684 49 q 689 37 686 41 m 336 502 q 477 556 418 502 q 548 689 538 610 q 548 742 548 707 q 479 875 538 821 q 336 929 418 929 q 184 867 248 929 q 122 715 122 804 q 184 564 122 627 q 336 502 248 502 z "},"\u0000":{"ha":0,"x_min":0,"x_max":0,"o":""},"\r":{"ha":0,"x_min":0,"x_max":0,"o":""}," ":{"ha":362,"x_min":0,"x_max":0,"o":""},"!":{"ha":250,"x_min":37,"x_max":214,"o":"m 83 198 q 84 198 84 198 q 84 232 84 209 q 83 256 84 245 q 84 285 83 267 q 79 332 83 301 q 80 359 83 354 q 81 378 79 363 q 81 895 81 551 q 68 922 77 905 q 62 948 66 930 q 37 966 54 954 q 37 1001 37 978 q 45 1001 41 1001 q 66 998 56 1001 q 98 990 81 996 q 153 979 125 982 q 214 1001 182 977 q 214 963 214 989 q 198 954 209 960 q 191 941 197 949 q 180 905 189 929 q 175 894 172 901 q 174 876 178 886 q 174 369 174 707 q 176 354 175 363 q 171 321 175 339 q 170 296 167 302 q 172 270 171 288 q 172 252 172 264 q 172 198 172 235 q 130 180 141 182 q 83 198 118 178 m 172 88 q 164 39 172 62 q 137 5 156 15 q 118 1 126 0 q 106 8 110 1 q 90 46 98 22 q 84 100 79 76 q 117 127 88 123 q 156 123 142 132 q 172 88 170 115 z "},"\"":{"ha":222,"x_min":27,"x_max":194,"o":"m 95 1002 q 95 808 95 937 q 80 750 90 789 q 50 750 71 750 q 27 808 43 770 q 27 1002 27 873 q 95 1002 50 1002 m 194 1001 q 194 807 194 936 q 179 749 190 788 q 151 749 170 749 q 127 807 142 769 q 127 1001 127 872 q 194 1001 149 1001 z "},"#":{"ha":1055,"x_min":27,"x_max":1029,"o":"m 719 399 q 906 397 781 399 q 1028 441 947 411 q 958 308 1004 396 q 718 308 878 308 q 718 72 718 229 q 755 0 731 47 q 625 33 712 11 q 627 308 625 123 q 430 308 562 308 q 430 72 430 229 q 468 0 444 47 q 338 33 425 11 q 339 308 338 123 q 100 308 259 308 q 27 271 76 296 q 60 401 38 315 q 340 400 153 401 q 340 595 340 465 q 100 595 260 595 q 27 559 76 583 q 61 690 39 602 q 342 689 155 690 q 342 878 342 751 q 298 1000 327 918 q 431 929 343 977 q 431 688 431 849 q 629 688 498 688 q 629 878 629 751 q 586 1000 614 918 q 720 929 631 977 q 720 686 720 848 q 907 686 783 686 q 1029 730 948 700 q 959 597 1005 685 q 719 597 879 597 q 719 498 719 548 q 719 399 719 448 m 430 400 q 628 400 496 400 q 628 597 628 465 q 430 597 562 597 q 430 499 430 548 q 430 400 430 449 z "},"$":{"ha":528,"x_min":26,"x_max":499,"o":"m 452 452 q 486 374 473 416 q 499 290 498 332 q 499 281 499 285 q 496 240 499 259 q 484 191 492 214 q 446 127 472 157 q 395 72 422 98 q 335 28 368 46 q 266 5 302 12 q 259 4 262 4 q 252 3 255 3 q 252 -65 252 -20 q 247 -77 245 -79 q 240 -94 247 -77 q 221 -75 227 -85 q 198 -34 216 -65 q 197 0 198 -23 q 167 1 182 1 q 136 3 151 3 q 84 1 130 3 q 37 1 37 0 q 37 33 37 1 q 37 103 37 64 q 37 195 37 152 q 37 239 37 239 q 61 239 45 239 q 62 232 61 236 q 65 225 64 228 q 90 168 75 195 q 129 121 106 141 q 160 96 142 107 q 197 79 178 85 q 197 217 197 125 q 197 503 197 312 q 197 510 197 505 q 148 532 175 519 q 107 556 121 544 q 96 564 103 560 q 85 575 91 570 q 61 606 71 590 q 45 643 52 624 q 27 739 31 688 q 26 760 26 750 q 38 836 26 800 q 83 916 52 879 q 153 972 114 951 q 174 981 163 977 q 197 986 184 985 q 197 989 197 990 q 197 991 197 987 q 213 1027 214 1016 q 210 1084 213 1039 q 224 1084 210 1084 q 239 1084 239 1084 q 245 1038 247 1048 q 252 991 245 1027 q 252 994 252 997 q 252 986 252 990 q 282 977 267 983 q 309 959 297 970 q 328 939 319 949 q 350 924 338 928 q 374 929 363 922 q 393 947 385 937 q 406 967 401 956 q 408 990 410 979 q 397 1010 406 1002 q 377 1021 389 1020 q 357 1012 365 1021 q 353 990 347 1001 q 336 996 343 989 q 327 1012 330 1004 q 328 1031 326 1021 q 336 1047 331 1040 q 385 1074 354 1070 q 439 1061 416 1078 q 468 1016 461 1044 q 476 960 476 987 q 472 891 476 925 q 456 823 468 857 q 438 783 449 802 q 408 749 426 762 q 397 768 404 760 q 381 783 391 776 q 376 785 378 783 q 373 789 374 787 q 373 795 372 792 q 373 802 373 799 q 369 822 374 812 q 358 842 363 833 q 332 876 346 860 q 301 905 317 891 q 277 918 289 913 q 251 928 264 925 q 251 850 251 890 q 251 789 251 812 q 251 600 251 726 q 296 581 273 590 q 339 560 319 571 q 403 513 374 541 q 452 452 433 484 m 137 727 q 160 677 145 700 q 195 635 175 652 q 195 789 195 686 q 195 848 195 811 q 195 922 195 886 q 156 892 172 911 q 130 850 140 873 q 123 789 121 821 q 137 727 126 757 m 392 241 q 392 251 392 245 q 392 262 392 256 q 392 271 392 266 q 391 282 392 277 q 388 302 389 293 q 385 323 387 313 q 358 393 377 362 q 307 449 339 423 q 279 468 294 458 q 251 484 266 476 q 251 216 251 395 q 251 72 251 168 q 320 103 281 75 q 376 170 359 133 q 388 205 384 186 q 392 241 391 222 z "},"%":{"ha":556,"x_min":23,"x_max":530,"o":"m 118 71 q 132 85 122 76 q 138 117 134 96 q 142 134 140 122 q 316 865 201 378 q 312 883 315 871 q 305 914 311 894 q 292 929 301 920 q 282 947 289 935 q 275 964 279 952 q 271 1000 274 977 q 399 1000 313 1000 q 422 1000 407 1000 q 457 1000 434 1000 q 457 975 457 991 q 433 939 449 963 q 416 918 427 932 q 412 883 415 906 q 403 857 410 875 q 231 142 346 618 q 240 117 233 134 q 244 81 241 104 q 262 61 250 75 q 285 24 269 49 q 285 0 285 16 q 250 0 273 0 q 227 0 243 0 q 99 0 184 0 q 102 37 99 12 q 109 53 103 42 q 113 62 111 57 q 118 71 115 66 m 252 894 q 251 894 252 894 q 251 882 251 890 q 214 868 239 878 q 240 837 222 857 q 233 825 237 833 q 194 831 220 827 q 205 793 198 819 q 191 787 199 791 q 161 812 182 795 q 148 774 156 800 q 133 774 142 774 q 119 812 129 788 q 90 787 110 804 q 76 793 84 788 q 80 829 77 806 q 42 822 68 827 q 35 834 39 826 q 61 865 43 845 q 23 879 49 869 q 23 892 23 884 q 61 907 37 898 q 35 937 53 917 q 42 949 37 941 q 80 943 54 948 q 73 982 79 956 q 85 989 77 985 q 117 963 96 981 q 130 1000 121 975 q 144 1000 136 1000 q 159 963 149 987 q 189 989 168 971 q 201 982 193 986 q 194 943 199 968 q 235 951 208 945 q 241 939 237 947 q 216 909 233 929 q 235 902 225 905 q 252 894 243 898 m 138 831 q 178 848 161 831 q 194 887 194 864 q 178 926 194 910 q 138 943 161 943 q 99 926 117 943 q 83 887 83 910 q 99 848 83 864 q 138 831 117 831 m 530 119 q 529 119 530 119 q 529 107 529 115 q 491 94 517 102 q 518 62 500 83 q 511 50 515 58 q 472 57 498 53 q 481 18 476 43 q 469 11 477 16 q 439 38 460 20 q 425 0 434 24 q 411 0 420 0 q 397 38 407 12 q 366 11 387 28 q 354 18 362 14 q 358 54 355 30 q 320 47 346 52 q 312 60 317 52 q 339 91 321 71 q 301 104 327 95 q 301 118 301 109 q 339 132 313 122 q 312 163 330 142 q 320 175 315 167 q 358 168 332 172 q 351 208 355 180 q 363 214 355 209 q 395 187 374 205 q 408 225 399 199 q 422 225 412 225 q 437 187 427 213 q 467 214 446 197 q 479 208 471 212 q 472 168 477 194 q 513 176 486 171 q 519 164 515 172 q 494 133 510 153 q 511 126 502 130 q 530 119 521 123 m 416 57 q 456 73 439 57 q 472 113 472 90 q 456 152 472 136 q 416 168 439 168 q 377 152 393 168 q 361 113 361 136 q 377 73 361 90 q 416 57 393 57 z "},"&":{"ha":667,"x_min":34,"x_max":608,"o":"m 164 152 q 232 87 195 103 q 309 80 269 71 q 385 115 335 92 q 422 35 397 88 q 350 1 399 23 q 347 -15 349 -7 q 343 -23 346 -23 q 335 -24 340 -24 q 327 -18 331 -24 q 317 -3 323 -11 q 302 -5 311 -5 q 288 -5 294 -5 q 279 -22 285 -15 q 274 -30 275 -30 q 266 -30 271 -30 q 260 -20 262 -28 q 255 -4 258 -12 q 240 -1 247 -3 q 225 1 232 -1 q 216 -12 221 -5 q 208 -16 210 -18 q 198 -14 205 -16 q 195 -4 195 -12 q 194 14 194 4 q 180 20 187 18 q 167 30 172 24 q 153 20 160 24 q 144 16 146 16 q 137 22 142 19 q 137 31 136 23 q 141 47 138 39 q 130 57 136 53 q 119 68 125 62 q 103 62 111 65 q 94 61 95 60 q 88 66 91 62 q 91 76 87 68 q 100 92 96 84 q 92 103 96 98 q 83 117 88 110 q 65 115 75 117 q 54 117 56 114 q 53 121 54 119 q 52 123 53 122 q 57 134 50 126 q 69 146 64 141 q 65 159 68 152 q 61 174 64 167 q 45 175 54 174 q 37 180 37 178 q 37 190 37 184 q 42 198 35 193 q 57 206 50 202 q 56 221 56 213 q 56 236 56 229 q 41 243 47 239 q 34 248 34 247 q 34 256 34 251 q 42 262 34 260 q 58 267 50 264 q 61 282 60 274 q 65 296 64 290 q 52 307 60 301 q 46 315 45 312 q 49 324 46 317 q 58 327 50 327 q 76 327 66 327 q 83 338 80 331 q 91 350 85 343 q 79 365 85 357 q 75 374 73 373 q 80 382 77 377 q 91 381 81 384 q 110 377 102 380 q 118 388 114 381 q 127 399 122 393 q 121 415 123 407 q 121 426 119 425 q 126 431 122 429 q 136 430 129 434 q 151 422 144 426 q 156 429 153 426 q 164 435 160 431 q 159 468 161 446 q 210 491 175 476 q 245 414 221 465 q 153 294 174 359 q 164 152 133 228 m 544 282 q 581 282 556 282 q 608 213 590 259 q 593 153 602 193 q 538 84 575 130 q 502 165 526 111 q 518 182 507 171 q 536 240 524 202 q 544 282 538 255 m 475 876 q 494 879 484 878 q 506 875 502 879 q 506 872 506 873 q 509 868 507 871 q 503 859 510 865 q 490 846 496 850 q 495 833 492 840 q 499 818 496 826 q 515 817 506 818 q 524 811 524 814 q 525 803 524 808 q 518 796 526 800 q 505 788 511 791 q 506 772 505 780 q 506 757 506 764 q 521 750 514 755 q 528 745 528 746 q 528 736 528 742 q 519 730 528 732 q 503 728 511 728 q 500 712 502 720 q 496 699 498 705 q 509 688 502 693 q 515 680 517 682 q 513 671 514 677 q 503 667 511 667 q 484 669 494 669 q 479 656 481 663 q 471 644 475 651 q 481 629 476 639 q 486 620 488 621 q 480 613 484 617 q 469 613 480 610 q 452 618 460 614 q 444 606 448 613 q 433 595 438 601 q 439 579 438 587 q 441 568 442 570 q 435 563 438 566 q 425 564 433 560 q 411 572 418 568 q 404 566 408 570 q 397 560 401 563 q 403 526 399 548 q 351 503 385 518 q 315 581 339 529 q 408 700 387 635 q 397 844 429 766 q 328 906 366 890 q 248 917 292 922 q 186 887 228 907 q 167 841 179 872 q 564 -11 300 556 q 540 -22 556 -15 q 465 0 515 -15 q 56 878 328 293 q 80 928 64 894 q 210 989 123 948 q 212 1005 210 997 q 217 1015 213 1015 q 225 1016 220 1015 q 233 1008 228 1016 q 241 993 237 1001 q 256 996 250 996 q 273 996 264 996 q 279 1012 275 1005 q 286 1020 283 1020 q 294 1020 289 1020 q 300 1010 297 1019 q 304 994 302 1002 q 320 993 312 993 q 335 989 327 991 q 345 1002 339 996 q 353 1006 350 1008 q 361 1004 355 1006 q 363 996 363 1004 q 363 979 365 987 q 378 972 372 977 q 392 964 385 968 q 404 974 397 968 q 414 977 412 978 q 420 971 416 975 q 422 962 423 970 q 416 945 420 954 q 429 936 423 941 q 439 925 434 930 q 456 930 448 928 q 465 932 464 935 q 471 926 467 930 q 467 917 472 925 q 458 902 463 909 q 467 890 463 895 q 475 876 471 884 z "},"'":{"ha":111,"x_min":27,"x_max":83,"o":"m 83 1002 q 83 808 83 937 q 65 750 77 789 q 47 750 60 750 q 27 808 41 770 q 27 1002 27 873 q 83 1002 46 1002 z "},"(":{"ha":222,"x_min":22,"x_max":218,"o":"m 216 -47 q 218 -84 217 -60 q 91 -84 176 -84 q 66 -84 83 -84 q 33 -84 56 -84 q 33 -58 33 -75 q 56 -23 41 -46 q 73 -1 61 -15 q 77 33 75 9 q 87 60 80 42 q 22 500 22 286 q 87 940 22 715 q 77 967 83 949 q 73 1001 76 978 q 56 1023 66 1009 q 33 1058 49 1035 q 33 1084 33 1067 q 66 1084 43 1084 q 91 1084 75 1084 q 218 1084 133 1084 q 216 1047 217 1072 q 209 1031 213 1042 q 199 1013 206 1025 q 186 997 194 1008 q 178 967 183 987 q 174 949 176 960 q 106 500 106 716 q 174 52 106 283 q 178 33 175 45 q 186 3 180 23 q 199 -12 190 -3 q 209 -31 202 -19 q 216 -47 212 -37 z "},")":{"ha":222,"x_min":22,"x_max":218,"o":"m 31 -31 q 41 -12 35 -24 q 56 3 46 -8 q 62 33 57 12 q 66 52 64 39 q 134 500 134 283 q 66 949 134 716 q 62 967 65 955 q 56 997 60 977 q 41 1013 50 1002 q 31 1031 38 1019 q 24 1047 28 1036 q 22 1084 23 1059 q 149 1084 64 1084 q 174 1084 157 1084 q 208 1084 184 1084 q 208 1058 208 1076 q 184 1023 199 1047 q 167 1001 179 1016 q 163 967 165 990 q 153 940 160 958 q 218 500 218 715 q 153 60 218 286 q 163 33 157 50 q 167 -1 164 22 q 184 -23 174 -8 q 208 -58 193 -34 q 208 -84 208 -66 q 174 -84 197 -84 q 149 -84 165 -84 q 22 -84 107 -84 q 24 -47 23 -72 q 31 -31 27 -42 z "},"*":{"ha":334,"x_min":27,"x_max":305,"o":"m 305 895 q 304 895 304 895 q 304 879 304 890 q 258 863 288 873 q 290 826 269 850 q 281 810 288 821 q 235 819 266 814 q 245 772 239 803 q 231 764 241 769 q 194 795 218 774 q 176 750 189 780 q 160 750 171 750 q 144 795 155 765 q 106 764 132 784 q 91 772 102 766 q 96 815 92 787 q 49 807 80 812 q 41 822 46 812 q 72 859 52 834 q 27 876 57 865 q 27 892 27 882 q 72 910 42 898 q 41 947 62 922 q 49 962 43 952 q 96 954 65 959 q 88 1001 94 970 q 103 1009 92 1004 q 140 977 115 998 q 157 1023 145 993 q 174 1023 163 1023 q 190 977 179 1008 q 228 1009 202 987 q 243 1001 232 1006 q 235 954 240 985 q 283 963 251 956 q 292 948 286 959 q 259 911 281 936 q 282 903 271 907 q 305 895 293 899 m 167 819 q 214 838 194 819 q 235 886 235 859 q 214 933 235 914 q 167 954 194 954 q 119 933 140 954 q 99 886 99 914 q 119 838 99 859 q 167 819 140 819 z "},"+":{"ha":416,"x_min":28,"x_max":416,"o":"m 28 507 q 416 507 125 507 q 416 563 416 521 q 28 563 320 563 q 28 507 28 548 m 250 340 q 250 728 250 437 q 194 728 236 728 q 194 340 194 632 q 250 340 209 340 z "},",":{"ha":165,"x_min":28,"x_max":127,"o":"m 127 83 q 127 -111 127 18 q 58 -184 104 -136 q 28 -171 49 -180 q 35 -111 30 -151 q 35 83 35 -46 q 127 83 66 83 z "},"-":{"ha":222,"x_min":27,"x_max":194,"o":"m 27 507 q 194 507 69 507 q 194 563 194 521 q 27 563 153 563 q 27 507 27 548 z "},".":{"ha":140,"x_min":1,"x_max":140,"o":"m 140 72 q 140 72 140 72 q 140 65 140 71 q 117 57 132 62 q 133 38 122 50 q 129 30 132 35 q 104 34 121 31 q 110 11 107 27 q 103 7 109 9 q 84 23 96 12 q 76 0 81 15 q 68 0 73 0 q 60 23 65 8 q 41 7 53 18 q 33 11 38 8 q 35 33 34 18 q 12 28 27 31 q 8 37 11 31 q 24 54 14 42 q 1 64 16 57 q 1 72 1 66 q 24 80 8 75 q 8 99 19 87 q 12 106 9 100 q 35 102 20 104 q 31 125 34 110 q 39 130 34 127 q 57 114 45 125 q 66 137 60 121 q 75 137 69 137 q 83 114 77 129 q 102 130 90 119 q 109 125 104 129 q 104 102 107 118 q 129 107 113 103 q 133 99 130 104 q 117 81 127 94 q 129 76 123 79 q 140 72 134 75 z "},"/":{"ha":416,"x_min":28,"x_max":388,"o":"m 38 -31 q 47 -12 41 -24 q 61 3 53 -8 q 69 33 64 12 q 73 52 71 39 q 247 949 130 350 q 243 967 245 955 q 235 997 240 977 q 221 1013 231 1002 q 212 1031 218 1019 q 205 1047 209 1036 q 202 1084 203 1059 q 330 1084 244 1084 q 353 1084 338 1084 q 388 1084 365 1084 q 388 1058 388 1076 q 365 1023 380 1047 q 347 1001 359 1016 q 343 967 346 990 q 334 940 340 958 q 160 60 275 647 q 170 33 164 50 q 174 -1 171 22 q 191 -23 180 -8 q 214 -58 198 -34 q 214 -84 214 -66 q 180 -84 203 -84 q 156 -84 172 -84 q 28 -84 114 -84 q 31 -47 30 -72 q 38 -31 34 -42 z "},":":{"ha":140,"x_min":1,"x_max":140,"o":"m 140 464 q 140 464 140 464 q 140 456 140 461 q 117 448 132 453 q 133 430 122 442 q 129 422 132 427 q 104 426 121 423 q 110 403 107 418 q 103 399 109 401 q 84 414 96 404 q 76 392 81 407 q 68 392 73 392 q 60 414 65 399 q 41 399 53 410 q 33 403 38 400 q 35 425 34 410 q 12 420 27 423 q 8 427 11 423 q 24 446 14 434 q 1 454 16 449 q 1 463 1 457 q 24 472 8 467 q 8 490 19 477 q 12 498 9 492 q 35 494 20 496 q 31 517 34 502 q 39 521 34 518 q 57 505 45 515 q 66 528 60 513 q 75 528 69 528 q 83 505 77 521 q 102 521 90 510 q 109 517 104 519 q 104 494 107 509 q 129 499 113 495 q 133 491 130 496 q 117 472 127 484 q 129 468 123 471 q 140 464 134 467 m 140 100 q 140 100 140 100 q 140 92 140 98 q 117 84 132 90 q 133 65 122 77 q 129 58 132 62 q 104 62 121 60 q 110 38 107 54 q 103 34 109 37 q 84 50 96 39 q 76 27 81 42 q 68 27 73 27 q 60 50 65 35 q 41 34 53 45 q 33 38 38 35 q 35 60 34 46 q 12 56 27 58 q 8 64 11 58 q 24 83 14 69 q 1 91 16 85 q 1 99 1 94 q 24 107 8 102 q 8 126 19 114 q 12 133 9 129 q 35 129 20 132 q 31 153 34 137 q 39 157 34 155 q 57 141 45 152 q 66 164 60 149 q 75 164 69 164 q 83 141 77 156 q 102 157 90 146 q 109 153 104 156 q 104 129 107 145 q 129 134 113 132 q 133 126 130 132 q 117 109 127 121 q 129 104 123 106 q 140 100 134 102 z "},";":{"ha":140,"x_min":1,"x_max":140,"o":"m 121 83 q 121 -111 121 18 q 50 -184 98 -136 q 20 -171 41 -180 q 27 -111 23 -151 q 27 83 27 -46 q 121 83 58 83 m 140 464 q 140 464 140 464 q 140 456 140 461 q 117 448 132 453 q 133 430 122 442 q 129 422 132 427 q 104 426 121 423 q 110 403 107 418 q 103 399 109 401 q 84 414 96 404 q 76 392 81 407 q 68 392 73 392 q 60 414 65 399 q 41 399 53 410 q 33 403 38 400 q 35 425 34 410 q 12 420 27 423 q 8 427 11 423 q 24 446 14 434 q 1 454 16 449 q 1 463 1 457 q 24 472 8 467 q 8 490 19 477 q 12 498 9 492 q 35 494 20 496 q 31 517 34 502 q 39 521 34 518 q 57 505 45 515 q 66 528 60 513 q 75 528 69 528 q 83 505 77 521 q 102 521 90 510 q 109 517 104 519 q 104 494 107 509 q 129 499 113 495 q 133 491 130 496 q 117 472 127 484 q 129 468 123 471 q 140 464 134 467 z "},"<":{"ha":305,"x_min":31,"x_max":275,"o":"m 205 681 q 275 604 228 655 q 208 532 252 581 q 172 450 175 498 q 197 365 168 404 q 270 266 221 332 q 208 208 250 245 q 31 457 149 290 q 118 568 75 513 q 205 681 161 625 z "},"=":{"ha":416,"x_min":27,"x_max":389,"o":"m 27 581 q 389 581 118 581 q 389 636 389 595 q 27 636 298 636 q 27 581 27 623 m 27 434 q 389 434 118 434 q 389 490 389 448 q 27 490 298 490 q 27 434 27 475 z "},">":{"ha":305,"x_min":31,"x_max":275,"o":"m 275 457 q 99 208 217 373 q 37 266 79 227 q 110 365 61 298 q 134 450 138 404 q 99 532 132 498 q 31 604 76 556 q 102 681 54 629 q 189 568 145 625 q 275 457 232 513 z "},"?":{"ha":694,"x_min":33,"x_max":663,"o":"m 662 655 q 433 583 509 675 q 359 327 357 490 q 359 190 359 281 q 313 163 343 197 q 269 145 283 130 q 269 498 269 262 q 326 620 285 562 q 419 713 366 680 q 479 741 448 731 q 540 745 509 749 q 446 863 500 826 q 323 899 392 899 q 174 830 241 899 q 68 656 106 761 q 50 701 45 665 q 33 746 56 738 q 145 936 81 872 q 323 1000 209 1000 q 517 928 433 1000 q 652 738 602 854 q 662 690 661 720 q 663 665 663 674 q 662 655 663 658 m 270 96 q 315 110 286 104 q 361 141 343 115 q 354 66 354 106 q 361 0 353 28 q 315 15 345 3 q 270 45 286 27 q 269 69 269 61 q 270 96 269 79 z "},"@":{"ha":1001,"x_min":20,"x_max":982,"o":"m 929 537 q 963 525 945 532 q 982 510 979 517 q 982 491 982 503 q 964 477 982 486 q 932 465 948 471 q 929 437 930 450 q 925 407 928 422 q 954 385 939 397 q 967 366 967 373 q 963 349 966 361 q 943 340 962 342 q 909 338 925 338 q 899 311 905 324 q 888 283 894 297 q 913 252 901 269 q 921 231 924 236 q 913 216 918 225 q 892 213 910 210 q 859 221 873 217 q 844 197 850 209 q 827 174 836 184 q 844 137 836 157 q 848 114 852 118 q 836 102 844 110 q 817 106 833 98 q 785 123 799 114 q 765 104 776 114 q 745 88 755 96 q 751 47 749 69 q 750 23 755 27 q 736 14 746 20 q 718 24 732 11 q 692 52 703 38 q 669 39 681 45 q 644 30 656 34 q 642 -12 643 9 q 635 -35 640 -33 q 620 -39 629 -37 q 602 -23 613 -39 q 583 11 591 -5 q 559 7 571 9 q 533 4 545 5 q 522 -34 528 -14 q 510 -54 515 -54 q 495 -54 505 -54 q 481 -34 488 -54 q 471 4 475 -15 q 446 7 458 5 q 420 11 433 8 q 400 -23 411 -5 q 385 -39 389 -41 q 369 -35 380 -38 q 362 -11 365 -33 q 359 30 359 11 q 336 39 349 34 q 313 52 326 45 q 288 24 301 38 q 269 14 273 11 q 254 23 263 18 q 252 47 250 27 q 259 88 255 69 q 239 104 250 96 q 220 123 229 114 q 187 106 205 114 q 167 102 171 98 q 156 114 163 106 q 159 138 152 119 q 175 175 167 159 q 159 197 167 186 q 144 221 152 209 q 110 213 129 217 q 90 216 92 210 q 80 231 85 220 q 90 252 77 236 q 113 283 100 270 q 102 311 107 297 q 94 338 98 324 q 58 340 77 339 q 39 349 39 342 q 35 366 38 354 q 49 387 34 373 q 77 408 64 399 q 73 438 75 423 q 71 467 72 452 q 38 479 56 472 q 20 494 20 487 q 20 511 20 499 q 38 525 20 517 q 71 537 56 532 q 73 567 72 552 q 77 595 76 582 q 49 618 64 606 q 35 637 34 631 q 39 655 37 643 q 58 665 39 662 q 94 667 76 667 q 102 693 98 681 q 113 720 107 707 q 90 751 100 734 q 80 773 77 769 q 90 789 83 779 q 110 791 92 793 q 144 784 129 788 q 159 806 152 795 q 175 829 167 818 q 159 865 167 846 q 156 888 152 884 q 167 902 159 892 q 187 897 170 906 q 218 879 203 888 q 237 898 228 888 q 258 916 248 907 q 251 955 254 935 q 252 979 248 977 q 267 989 258 982 q 285 979 271 991 q 311 952 300 966 q 334 964 323 959 q 358 975 346 970 q 361 1015 359 994 q 369 1036 363 1035 q 385 1040 374 1038 q 400 1025 389 1043 q 419 991 411 1008 q 445 997 431 994 q 469 1000 457 1000 q 481 1039 475 1019 q 494 1058 488 1058 q 509 1058 498 1058 q 521 1038 514 1058 q 532 1000 528 1017 q 557 997 544 1000 q 582 993 570 996 q 601 1027 590 1009 q 617 1042 612 1044 q 632 1036 621 1040 q 639 1013 637 1034 q 642 974 642 993 q 666 963 654 970 q 689 951 677 958 q 715 978 700 964 q 734 987 730 990 q 747 978 738 985 q 749 955 751 975 q 742 916 746 935 q 762 898 751 907 q 783 879 773 888 q 812 897 796 888 q 833 902 829 906 q 845 887 837 897 q 841 864 848 883 q 825 827 833 845 q 841 804 833 817 q 856 780 848 793 q 888 788 871 785 q 910 787 906 791 q 918 770 913 781 q 909 749 920 765 q 886 719 898 732 q 897 693 891 707 q 906 665 902 680 q 940 662 922 665 q 960 654 959 661 q 964 636 962 648 q 951 618 966 631 q 922 595 936 605 q 926 567 925 582 q 929 537 928 552 m 500 99 q 635 130 572 99 q 746 217 699 161 q 667 217 719 217 q 667 251 667 228 q 667 252 667 252 q 667 252 667 252 q 597 213 635 228 q 514 198 557 198 q 444 209 477 198 q 382 239 410 220 q 373 245 378 241 q 361 254 368 250 q 353 256 358 254 q 339 258 346 258 q 336 266 338 262 q 335 273 336 269 q 334 277 334 274 q 335 283 334 281 q 334 283 334 283 q 334 285 334 285 q 319 286 326 285 q 304 288 312 286 q 305 305 304 297 q 308 321 308 312 q 307 321 308 321 q 307 323 307 323 q 297 324 302 323 q 285 328 292 326 q 281 336 282 331 q 275 346 278 340 q 282 350 278 349 q 290 355 286 353 q 290 357 290 357 q 290 357 290 357 q 288 362 289 359 q 286 368 288 365 q 278 370 282 369 q 269 372 273 372 q 267 384 267 377 q 266 395 266 389 q 271 397 269 396 q 278 400 274 399 q 277 404 278 401 q 277 410 277 408 q 270 412 273 411 q 262 415 266 414 q 262 426 262 420 q 262 438 262 431 q 267 441 264 438 q 275 444 271 442 q 275 449 275 446 q 275 456 275 453 q 269 458 271 457 q 262 463 266 460 q 262 471 262 465 q 262 479 262 475 q 270 481 266 480 q 278 483 274 483 q 278 490 278 487 q 281 498 279 494 q 277 502 278 499 q 271 506 274 503 q 271 514 271 510 q 273 522 271 518 q 282 524 278 522 q 293 524 286 524 q 296 530 294 526 q 298 536 297 533 q 293 541 296 540 q 286 547 289 544 q 288 553 288 552 q 290 560 289 556 q 302 562 297 560 q 312 564 308 563 q 313 566 313 566 q 315 568 315 567 q 313 579 317 574 q 311 590 311 585 q 315 594 313 593 q 317 598 316 597 q 327 598 323 598 q 338 598 331 598 q 339 602 339 601 q 342 604 340 604 q 343 616 343 609 q 346 628 345 621 q 357 628 351 628 q 369 631 362 629 q 408 655 387 644 q 458 671 431 666 q 486 675 472 674 q 514 678 499 678 q 571 671 544 678 q 624 651 598 663 q 590 686 608 671 q 552 712 572 703 q 524 722 543 718 q 491 727 505 727 q 437 722 465 727 q 381 701 408 716 q 275 686 346 696 q 262 718 270 697 q 384 780 302 739 q 469 799 427 799 q 553 787 513 800 q 555 788 553 787 q 566 793 559 789 q 578 802 571 798 q 586 799 582 800 q 595 796 590 798 q 595 785 595 792 q 594 773 595 780 q 602 765 597 770 q 613 772 608 769 q 625 779 618 774 q 635 770 631 774 q 646 762 640 766 q 642 753 644 757 q 639 745 640 749 q 644 742 642 743 q 648 741 647 742 q 656 745 652 742 q 667 749 662 746 q 682 731 671 742 q 678 723 680 727 q 674 712 677 719 q 677 708 675 711 q 681 704 678 707 q 692 707 686 705 q 703 711 697 709 q 716 697 708 707 q 711 688 713 693 q 705 680 708 684 q 709 673 708 675 q 713 667 712 670 q 722 666 718 666 q 731 669 727 667 q 736 661 734 663 q 743 652 741 656 q 736 644 739 648 q 730 635 734 640 q 732 628 731 632 q 735 621 734 624 q 745 621 741 621 q 755 623 749 621 q 760 616 758 618 q 762 610 761 613 q 755 598 758 604 q 747 587 751 593 q 757 575 747 576 q 769 567 765 572 q 770 560 769 563 q 770 555 770 557 q 751 534 765 548 q 761 521 757 528 q 770 507 765 514 q 762 496 765 502 q 753 484 758 491 q 750 480 751 483 q 749 473 750 476 q 750 456 750 465 q 751 439 751 448 q 749 404 751 422 q 742 370 747 388 q 742 358 742 366 q 750 332 745 350 q 755 298 751 321 q 770 278 761 292 q 785 273 776 275 q 830 380 814 321 q 848 502 848 438 q 834 613 848 560 q 795 713 819 667 q 671 852 749 799 q 500 905 593 905 q 328 852 407 905 q 205 713 251 799 q 167 613 180 667 q 153 502 153 560 q 167 389 153 444 q 205 289 180 335 q 328 151 251 203 q 500 99 407 99 m 382 381 q 388 370 384 377 q 388 369 388 370 q 395 358 389 366 q 403 349 397 355 q 403 347 403 349 q 416 332 407 342 q 420 330 419 331 q 423 328 423 328 q 427 326 426 327 q 430 324 430 324 q 433 323 431 323 q 435 321 434 321 q 472 304 452 309 q 513 297 491 297 q 610 338 571 297 q 650 438 650 380 q 609 537 650 496 q 509 579 567 579 q 491 578 500 579 q 475 575 483 576 q 472 575 475 575 q 471 575 472 575 q 448 568 458 572 q 427 556 437 563 q 415 544 423 552 q 407 536 412 541 q 406 534 407 536 q 404 533 406 534 q 396 524 401 530 q 396 522 396 524 q 391 515 393 519 q 389 514 389 515 q 389 513 389 514 q 385 506 388 510 q 381 498 384 503 q 380 494 381 495 q 378 488 378 491 q 374 480 377 486 q 373 472 374 477 q 373 468 373 471 q 372 464 372 467 q 370 456 372 461 q 370 448 370 453 q 370 445 370 446 q 370 441 370 442 q 370 430 370 437 q 372 420 372 427 q 373 418 373 420 q 373 415 373 416 q 374 406 374 412 q 374 397 374 403 q 376 393 374 395 q 378 391 376 392 q 380 385 378 388 q 382 381 381 382 z "},"A":{"ha":833,"x_min":26,"x_max":806,"o":"m 806 0 q 583 0 732 0 q 568 56 586 28 q 510 111 549 84 q 534 132 526 121 q 541 153 543 141 q 505 232 529 179 q 476 239 488 236 q 454 244 464 243 q 410 256 404 259 q 324 232 414 254 q 286 153 312 206 q 296 132 286 141 q 319 111 304 121 q 263 58 281 85 q 245 0 244 30 q 26 0 172 0 q 141 153 64 52 q 153 178 145 161 q 153 264 153 206 q 179 274 167 269 q 205 283 191 279 q 416 1000 275 522 q 627 283 487 761 q 654 274 640 278 q 678 264 666 269 q 678 178 678 235 q 690 153 682 170 q 749 76 720 114 q 806 0 777 38 m 315 331 q 414 345 399 345 q 514 330 430 343 q 416 753 481 471 q 368 529 385 642 q 315 331 350 416 z "},"B":{"ha":722,"x_min":37,"x_max":686,"o":"m 675 338 q 686 258 686 300 q 674 168 686 214 q 574 46 648 98 q 407 -46 499 -7 q 351 1 381 -15 q 285 27 321 18 q 256 15 266 28 q 222 0 247 0 q 60 1 168 1 q 60 103 60 35 q 98 134 72 114 q 98 165 98 145 q 118 183 104 171 q 118 865 118 411 q 99 891 111 873 q 79 926 92 903 q 37 936 65 929 q 37 1002 37 959 q 180 1002 84 1002 q 197 990 186 997 q 216 981 206 985 q 264 975 254 971 q 285 983 277 979 q 351 1027 327 1005 q 388 1084 377 1048 q 560 954 499 1032 q 631 770 621 876 q 635 724 633 747 q 631 681 635 701 q 595 586 628 629 q 511 506 563 543 q 608 438 567 479 q 675 338 650 397 m 205 911 q 205 519 205 780 q 376 519 262 519 q 484 585 444 540 q 534 694 525 629 q 543 735 543 712 q 534 783 541 758 q 492 876 515 830 q 427 940 469 922 q 384 944 411 944 q 339 940 357 944 q 264 925 324 939 q 205 911 205 911 m 597 255 q 602 289 604 273 q 597 326 602 307 q 530 416 579 381 q 411 458 480 452 q 203 458 342 458 q 203 141 203 353 q 307 141 237 141 q 351 104 320 122 q 406 79 382 85 q 437 79 419 76 q 468 90 454 80 q 549 161 510 111 q 597 255 590 212 z "},"C":{"ha":722,"x_min":22,"x_max":700,"o":"m 647 358 q 689 349 670 354 q 700 340 700 345 q 694 338 700 339 q 685 301 690 335 q 674 222 678 269 q 674 221 674 221 q 674 220 674 221 q 665 103 667 163 q 665 7 662 42 q 662 0 665 1 q 659 0 661 0 q 654 1 656 -1 q 601 72 636 24 q 600 73 601 73 q 600 75 600 75 q 507 20 557 39 q 401 0 457 0 q 214 65 300 0 q 79 236 129 130 q 37 361 52 294 q 22 500 22 427 q 68 738 22 629 q 189 914 114 846 q 186 929 189 921 q 178 945 184 937 q 182 949 180 949 q 184 954 183 951 q 206 944 197 947 q 227 943 216 943 q 293 978 258 964 q 363 997 327 991 q 388 1013 377 1004 q 401 1042 399 1023 q 407 1042 404 1042 q 412 1042 408 1042 q 426 1013 416 1024 q 448 996 435 1004 q 519 975 487 990 q 578 935 552 960 q 594 937 586 935 q 613 945 604 940 q 617 943 616 944 q 620 939 617 941 q 610 920 613 929 q 609 902 609 910 q 635 860 621 883 q 659 812 648 838 q 681 837 667 821 q 690 840 685 842 q 696 830 697 837 q 689 751 689 789 q 696 677 689 713 q 692 667 697 670 q 682 669 688 665 q 652 693 673 677 q 652 693 652 693 q 651 694 651 694 q 651 694 651 694 q 650 694 650 694 q 650 699 650 697 q 647 703 648 701 q 553 667 604 678 q 452 652 505 655 q 415 549 457 595 q 320 461 374 503 q 305 473 315 465 q 335 500 315 483 q 336 682 372 593 q 264 869 301 770 q 170 732 208 818 q 122 552 132 648 q 138 518 129 533 q 172 500 148 505 q 138 483 149 496 q 121 454 127 471 q 138 351 125 401 q 174 256 152 300 q 273 122 213 174 q 401 69 332 69 q 526 117 468 69 q 624 241 585 164 q 624 245 624 243 q 640 353 629 282 q 642 357 640 355 q 647 358 644 358 m 362 526 q 410 593 389 559 q 422 669 429 628 q 412 701 419 680 q 323 773 382 726 q 370 648 357 711 q 362 526 384 587 m 425 728 q 473 914 441 789 q 438 926 456 922 q 401 930 420 930 q 350 924 376 930 q 302 902 326 916 q 293 878 294 891 q 296 852 292 865 q 313 810 302 837 q 369 769 342 789 q 425 728 397 749 m 452 688 q 543 689 496 681 q 637 726 589 699 q 582 823 614 779 q 510 894 549 867 q 480 791 495 842 q 452 688 467 739 z "},"D":{"ha":750,"x_min":37,"x_max":716,"o":"m 351 1000 q 593 860 503 967 q 712 575 681 753 q 716 500 716 537 q 712 425 716 463 q 600 142 682 250 q 377 0 517 35 q 37 0 263 0 q 77 87 71 26 q 88 212 84 146 q 88 791 88 404 q 81 920 90 863 q 49 1000 75 977 q 247 1000 115 1000 q 247 954 247 985 q 351 954 281 954 q 351 977 351 966 q 351 1000 351 989 m 590 574 q 568 677 583 629 q 528 762 553 724 q 528 363 528 629 q 534 345 532 354 q 540 330 537 335 q 553 321 545 323 q 571 323 562 320 q 583 373 579 347 q 590 426 589 399 q 597 499 598 461 q 590 574 597 536 m 347 68 q 463 145 414 100 q 541 248 510 190 q 515 292 524 270 q 505 340 506 315 q 505 800 505 494 q 439 860 476 834 q 354 902 401 886 q 263 902 324 902 q 216 872 225 886 q 198 853 205 859 q 198 199 198 635 q 216 160 203 178 q 248 133 227 141 q 285 133 260 133 q 285 68 285 111 q 316 68 301 68 q 347 68 332 68 z "},"E":{"ha":610,"x_min":33,"x_max":575,"o":"m 575 1000 q 575 917 575 971 q 544 910 556 920 q 526 882 532 901 q 526 798 526 853 q 446 798 500 798 q 446 905 446 834 q 210 905 368 905 q 210 555 210 788 q 388 555 270 555 q 437 587 422 563 q 457 651 452 613 q 457 684 457 662 q 526 684 480 684 q 526 374 526 581 q 457 374 503 374 q 439 437 457 416 q 388 476 422 456 q 208 476 328 476 q 208 92 208 349 q 442 92 286 92 q 442 203 442 129 q 526 203 471 203 q 526 142 526 183 q 541 90 529 109 q 574 62 555 71 q 574 31 574 46 q 574 -1 574 15 q 33 -1 393 -1 q 33 53 33 18 q 72 66 57 54 q 91 107 87 80 q 91 882 91 365 q 71 911 85 901 q 33 930 54 924 q 33 1000 33 954 q 304 1000 168 1000 q 575 1000 439 1000 z "},"F":{"ha":528,"x_min":31,"x_max":500,"o":"m 31 998 q 156 998 73 998 q 183 972 165 990 q 210 1000 193 982 q 500 1000 307 1000 q 500 795 500 932 q 374 911 458 833 q 237 911 330 911 q 179 852 217 891 q 179 571 179 758 q 387 571 248 571 q 445 627 406 590 q 445 483 445 579 q 180 483 357 483 q 180 176 180 381 q 195 96 184 149 q 214 71 202 88 q 224 52 218 64 q 251 0 233 34 q 42 0 182 0 q 42 12 42 4 q 69 41 52 22 q 75 115 71 65 q 75 958 75 396 q 31 998 60 971 z "},"G":{"ha":779,"x_min":31,"x_max":749,"o":"m 515 514 q 625 506 566 515 q 743 479 685 496 q 735 449 741 469 q 735 184 735 361 q 712 141 727 171 q 712 137 712 140 q 708 133 711 136 q 591 38 658 73 q 453 3 526 3 q 336 27 392 3 q 233 96 281 52 q 208 99 221 100 q 179 90 194 99 q 176 92 178 91 q 172 96 175 94 q 183 129 183 114 q 176 161 183 145 q 109 292 134 218 q 76 449 83 365 q 60 475 71 464 q 31 488 50 486 q 31 495 31 494 q 31 500 31 496 q 57 511 47 503 q 75 533 68 521 q 121 743 80 647 q 228 903 163 840 q 228 925 229 914 q 218 948 227 936 q 222 952 221 951 q 227 956 224 954 q 258 945 243 945 q 288 949 273 945 q 366 987 326 974 q 453 1000 408 1000 q 632 945 563 1000 q 749 768 701 890 q 724 731 726 760 q 700 694 723 701 q 598 856 665 795 q 453 917 532 917 q 326 868 385 917 q 227 742 266 821 q 193 652 206 701 q 174 553 179 605 q 198 529 184 538 q 244 505 213 518 q 251 495 251 502 q 244 484 251 488 q 202 458 217 472 q 176 429 186 445 q 273 194 194 290 q 453 98 351 98 q 549 118 503 98 q 632 180 595 138 q 648 247 637 203 q 648 435 648 309 q 530 444 591 445 q 406 427 469 442 q 415 468 408 441 q 472 479 446 468 q 515 514 496 490 z "},"H":{"ha":750,"x_min":28,"x_max":723,"o":"m 682 879 q 663 853 675 869 q 663 145 663 617 q 682 121 670 137 q 682 73 682 104 q 708 57 690 68 q 723 33 712 49 q 723 0 723 22 q 503 0 650 0 q 503 65 503 22 q 532 80 513 71 q 537 99 533 87 q 537 130 537 109 q 557 152 544 137 q 557 467 557 256 q 191 467 435 467 q 191 464 191 465 q 194 152 191 359 q 214 129 201 144 q 214 98 214 119 q 220 81 216 92 q 248 65 229 76 q 248 0 248 43 q 28 0 175 0 q 28 33 28 11 q 43 56 34 41 q 69 75 52 62 q 69 121 69 90 q 94 152 77 132 q 94 849 94 384 q 69 879 85 859 q 69 926 69 895 q 43 944 60 932 q 28 968 38 952 q 28 1000 28 979 q 248 1000 102 1000 q 248 935 248 978 q 220 920 239 929 q 214 903 218 914 q 214 871 214 892 q 194 849 208 864 q 194 548 194 749 q 557 548 315 548 q 557 848 557 648 q 537 868 551 854 q 537 901 537 879 q 532 918 534 906 q 503 935 522 924 q 503 1000 503 956 q 723 1000 576 1000 q 723 967 723 989 q 708 943 718 959 q 682 925 699 937 q 682 879 682 910 z "},"I":{"ha":305,"x_min":34,"x_max":275,"o":"m 275 1000 q 275 945 275 982 q 248 928 266 940 q 224 903 240 920 q 217 873 220 888 q 217 845 214 859 q 205 829 213 840 q 205 125 205 594 q 214 107 209 115 q 228 96 220 100 q 239 60 232 84 q 264 60 247 60 q 275 38 267 53 q 275 0 275 24 q 34 0 194 0 q 34 35 34 12 q 60 53 42 41 q 60 80 60 62 q 79 106 66 90 q 79 167 79 126 q 102 187 87 174 q 102 476 102 283 q 94 502 100 491 q 75 521 87 513 q 94 536 87 526 q 107 560 102 545 q 107 819 107 647 q 99 845 104 834 q 85 865 95 856 q 81 914 84 882 q 61 945 73 933 q 34 967 49 958 q 34 1000 34 978 q 157 1000 100 1000 q 275 1000 214 1000 z "},"J":{"ha":612,"x_min":30,"x_max":582,"o":"m 538 920 q 518 872 532 903 q 518 323 518 689 q 521 315 519 317 q 524 307 522 311 q 533 296 529 301 q 541 285 537 290 q 532 271 536 278 q 522 256 528 264 q 540 237 528 251 q 540 231 540 235 q 538 225 538 228 q 526 217 534 218 q 517 205 517 216 q 525 194 521 199 q 532 182 528 189 q 529 176 530 179 q 525 170 528 172 q 514 171 518 171 q 505 171 510 171 q 502 164 503 168 q 499 157 500 160 q 506 148 503 152 q 513 138 509 142 q 506 132 510 134 q 500 123 503 127 q 491 125 496 125 q 483 125 487 126 q 479 119 481 122 q 475 113 477 115 q 480 103 479 109 q 486 95 483 99 q 472 80 481 90 q 461 84 467 83 q 452 88 456 87 q 448 83 449 85 q 445 79 446 81 q 449 69 448 73 q 453 61 450 64 q 435 43 446 56 q 425 47 430 45 q 416 52 420 49 q 412 49 415 50 q 407 47 410 49 q 410 39 408 43 q 414 30 412 34 q 403 20 408 24 q 393 12 399 16 q 381 19 387 16 q 370 26 376 22 q 362 18 368 23 q 363 5 363 12 q 363 -4 363 0 q 354 -8 358 -7 q 346 -9 350 -8 q 334 -1 339 -5 q 323 4 327 3 q 321 5 321 4 q 237 -7 281 -8 q 152 11 195 -7 q 30 73 111 33 q 43 119 34 90 q 149 104 79 114 q 205 84 176 90 q 259 79 233 79 q 292 84 273 79 q 320 94 311 88 q 397 163 365 117 q 438 264 430 210 q 425 334 433 288 q 423 346 425 335 q 423 373 423 357 q 400 395 416 381 q 400 522 400 431 q 400 705 400 614 q 400 799 400 755 q 400 872 400 842 q 363 920 388 888 q 334 920 354 920 q 334 1000 334 947 q 582 1000 416 1000 q 582 920 582 972 q 560 920 571 920 q 538 920 549 920 z "},"K":{"ha":666,"x_min":28,"x_max":637,"o":"m 610 49 q 637 49 618 49 q 637 0 637 33 q 604 0 627 0 q 461 0 556 0 q 403 0 442 0 q 403 49 403 16 q 422 49 410 49 q 431 64 426 56 q 441 77 437 72 q 296 582 392 245 q 205 582 266 582 q 205 130 205 431 q 231 94 213 118 q 274 49 245 79 q 274 0 274 33 q 49 0 199 0 q 49 53 49 18 q 80 83 60 62 q 94 134 84 100 q 94 867 94 378 q 76 894 88 876 q 60 936 71 909 q 28 956 49 943 q 28 1000 28 970 q 274 1000 110 1000 q 274 952 274 985 q 221 924 256 943 q 205 868 216 905 q 205 648 205 795 q 277 648 228 648 q 457 944 336 747 q 435 959 449 949 q 404 959 425 959 q 404 1000 404 972 q 490 1000 433 1000 q 605 1000 529 1000 q 637 1000 616 1000 q 637 959 637 986 q 597 959 624 959 q 581 947 589 952 q 564 936 572 941 q 376 639 500 837 q 581 71 444 449 q 595 60 587 65 q 610 49 604 54 z "},"L":{"ha":555,"x_min":28,"x_max":528,"o":"m 260 1000 q 260 971 260 990 q 240 949 254 964 q 216 895 232 932 q 202 844 212 879 q 202 127 202 605 q 255 57 220 104 q 355 57 289 57 q 434 111 382 75 q 465 161 445 127 q 465 296 465 206 q 528 296 486 296 q 528 0 528 197 q 42 0 366 0 q 42 153 42 52 q 75 170 53 159 q 90 182 80 174 q 90 872 90 412 q 66 918 83 887 q 28 935 54 924 q 28 1000 28 956 q 260 1000 106 1000 z "},"M":{"ha":779,"x_min":28,"x_max":749,"o":"m 689 854 q 689 146 689 618 q 708 121 694 137 q 708 73 708 104 q 732 56 716 68 q 749 33 738 47 q 749 0 749 22 q 529 0 675 0 q 529 65 529 22 q 556 80 538 71 q 560 99 557 87 q 560 130 560 110 q 583 152 568 137 q 583 849 583 384 q 445 0 537 566 q 339 0 410 0 q 194 849 290 283 q 194 152 194 616 q 216 130 201 144 q 216 99 216 119 q 220 80 217 92 q 248 65 229 76 q 248 0 248 43 q 28 0 175 0 q 28 33 28 11 q 43 56 34 39 q 69 73 52 61 q 69 121 69 90 q 88 146 75 129 q 88 854 88 382 q 69 879 81 863 q 69 926 69 895 q 43 944 60 932 q 28 968 38 952 q 28 1000 28 979 q 248 1000 102 1000 q 410 282 301 761 q 529 1000 449 521 q 749 1000 602 1000 q 749 968 749 989 q 732 944 743 960 q 708 926 724 939 q 708 879 708 910 q 689 854 701 871 z "},"N":{"ha":777,"x_min":34,"x_max":750,"o":"m 34 1000 q 197 1000 88 1000 q 544 290 313 764 q 589 248 568 251 q 609 290 609 245 q 609 869 609 483 q 574 905 597 882 q 574 1000 574 936 q 750 1000 632 1000 q 750 898 750 966 q 728 869 743 888 q 728 0 728 579 q 572 0 675 0 q 572 56 572 19 q 206 743 450 285 q 205 91 205 525 q 228 71 212 84 q 251 52 236 64 q 251 0 251 34 q 50 0 184 0 q 50 66 50 22 q 72 66 57 66 q 91 100 79 77 q 91 879 91 359 q 34 907 72 888 q 34 1000 34 939 z "},"O":{"ha":917,"x_min":27,"x_max":891,"o":"m 844 532 q 873 521 857 528 q 891 507 890 514 q 891 491 891 502 q 876 479 891 486 q 846 467 860 472 q 844 441 845 454 q 840 415 842 427 q 865 395 852 406 q 878 378 879 384 q 873 362 876 373 q 856 354 872 357 q 825 353 840 353 q 817 328 822 340 q 807 304 812 316 q 829 275 818 290 q 837 256 840 260 q 829 243 834 251 q 811 240 827 237 q 780 247 795 243 q 766 225 773 236 q 753 205 760 216 q 766 172 760 190 q 770 151 774 155 q 760 140 766 148 q 742 144 757 136 q 713 160 727 152 q 696 144 705 152 q 678 127 688 134 q 685 92 681 110 q 682 71 688 73 q 670 61 678 66 q 654 71 666 58 q 631 95 640 83 q 609 84 620 90 q 587 75 600 80 q 586 38 587 57 q 579 18 583 19 q 566 14 575 16 q 551 28 560 12 q 533 58 540 43 q 510 56 522 57 q 488 53 499 53 q 477 18 483 37 q 467 0 472 0 q 453 0 463 0 q 441 18 448 0 q 431 53 435 35 q 410 54 420 53 q 387 58 397 56 q 369 27 378 43 q 354 14 359 12 q 340 18 350 15 q 334 39 336 19 q 332 75 332 58 q 312 84 321 80 q 290 95 301 90 q 267 71 279 83 q 250 61 254 58 q 237 71 245 64 q 236 92 233 73 q 241 127 239 110 q 224 144 233 134 q 206 160 214 152 q 178 144 193 152 q 159 140 163 136 q 148 151 155 144 q 152 174 145 156 q 165 206 159 191 q 152 225 159 216 q 138 247 145 236 q 107 240 125 243 q 88 243 91 237 q 81 256 85 247 q 88 275 79 260 q 110 304 99 292 q 100 328 104 316 q 92 353 96 340 q 61 355 79 353 q 43 362 45 357 q 39 378 42 368 q 53 396 39 384 q 79 416 66 407 q 75 442 76 429 q 72 468 73 456 q 43 480 58 473 q 27 492 27 487 q 27 509 27 498 q 43 521 27 514 q 72 532 58 528 q 75 557 73 545 q 79 585 76 571 q 52 605 65 594 q 39 621 39 616 q 43 637 41 627 q 61 646 45 643 q 92 648 77 648 q 100 673 96 661 q 110 697 104 685 q 88 724 99 709 q 81 745 79 739 q 88 758 84 749 q 107 760 91 762 q 138 753 125 757 q 152 773 145 764 q 165 793 159 784 q 152 826 159 808 q 148 848 145 844 q 159 859 152 852 q 176 854 161 863 q 205 840 191 848 q 222 856 213 848 q 241 871 232 864 q 235 907 237 888 q 236 929 232 926 q 248 937 240 932 q 264 929 252 940 q 288 905 278 917 q 309 916 298 910 q 331 925 320 921 q 334 960 331 941 q 340 981 335 979 q 354 983 346 981 q 369 970 359 986 q 385 940 378 955 q 408 945 397 943 q 430 948 419 947 q 441 982 435 964 q 452 1000 448 1000 q 465 1000 456 1000 q 477 982 471 1000 q 487 948 483 963 q 509 945 498 947 q 532 941 521 944 q 549 971 540 955 q 563 985 559 987 q 576 981 567 983 q 583 959 582 978 q 586 924 586 941 q 608 914 597 920 q 628 903 617 910 q 651 928 637 916 q 667 936 665 939 q 681 928 671 933 q 681 906 684 925 q 675 871 680 888 q 694 856 685 864 q 712 840 703 848 q 739 854 724 848 q 758 859 754 863 q 768 846 761 854 q 764 825 770 842 q 750 792 758 808 q 765 772 758 783 q 777 750 770 761 q 807 757 792 754 q 826 755 823 760 q 834 742 829 750 q 826 722 836 736 q 806 696 815 708 q 814 671 810 684 q 822 647 819 659 q 854 644 837 646 q 871 636 871 643 q 875 620 872 631 q 863 604 876 616 q 837 585 849 593 q 841 557 841 571 q 844 532 842 545 m 458 137 q 545 152 503 137 q 623 191 586 165 q 730 320 689 239 q 770 499 770 401 q 758 600 770 552 q 723 690 746 648 q 612 814 682 766 q 458 861 543 861 q 372 848 412 861 q 293 807 330 833 q 187 678 228 760 q 146 499 146 597 q 187 320 146 401 q 293 191 228 239 q 372 152 330 165 q 458 137 412 137 z "},"P":{"ha":610,"x_min":35,"x_max":576,"o":"m 339 1000 q 507 930 438 1000 q 576 764 576 861 q 576 761 576 762 q 576 461 576 661 q 545 437 566 453 q 529 454 532 456 q 500 461 526 454 q 389 433 473 435 q 239 445 305 431 q 239 174 239 354 q 248 140 243 163 q 258 104 252 129 q 282 85 266 98 q 297 64 288 79 q 308 45 301 57 q 309 0 309 30 q 35 0 218 0 q 35 31 35 11 q 69 75 46 45 q 94 100 77 83 q 102 140 96 114 q 118 184 107 155 q 119 404 118 258 q 141 426 127 411 q 141 844 141 566 q 127 890 137 859 q 106 914 121 898 q 106 966 106 930 q 69 1000 94 977 q 155 1000 69 1000 q 339 1000 240 1000 m 487 553 q 487 707 487 604 q 454 837 483 791 q 353 887 426 883 q 292 887 332 887 q 259 865 271 880 q 240 827 247 850 q 240 530 240 728 q 381 517 301 513 q 487 553 461 522 z "},"Q":{"ha":890,"x_min":33,"x_max":856,"o":"m 831 681 q 856 500 856 605 q 831 320 856 396 q 807 305 818 313 q 788 288 796 298 q 712 145 760 208 q 602 46 665 83 q 604 43 602 45 q 604 42 604 42 q 605 33 605 37 q 606 22 606 27 q 613 -16 609 9 q 618 -56 616 -37 q 623 -95 620 -75 q 605 -60 613 -77 q 587 -23 595 -42 q 571 12 582 -12 q 568 19 570 16 q 566 26 567 23 q 506 7 536 14 q 445 0 476 0 q 239 80 331 0 q 102 288 146 160 q 81 305 94 298 q 57 320 71 313 q 33 500 33 396 q 57 681 33 605 q 81 696 71 686 q 102 713 94 704 q 239 921 148 841 q 445 1000 331 1000 q 650 921 557 1000 q 788 713 742 841 q 807 694 796 704 q 831 681 818 686 m 302 123 q 370 73 334 91 q 445 56 406 56 q 496 64 471 56 q 545 90 522 73 q 514 197 536 125 q 442 438 490 277 q 384 289 422 388 q 362 237 377 271 q 357 225 359 231 q 353 212 355 218 q 346 199 350 205 q 339 187 343 193 q 321 156 331 172 q 302 123 312 140 m 581 118 q 678 263 639 174 q 726 454 716 354 q 708 483 719 471 q 674 500 697 495 q 707 518 697 505 q 724 552 718 533 q 677 739 715 650 q 581 882 637 827 q 515 928 551 911 q 445 944 481 944 q 373 928 408 944 q 308 882 339 911 q 213 739 251 827 q 165 552 174 650 q 182 518 171 533 q 216 500 191 505 q 182 483 193 496 q 164 454 170 471 q 205 277 171 361 q 292 134 240 191 q 300 167 296 151 q 307 199 302 183 q 311 213 309 206 q 313 227 312 220 q 319 239 316 233 q 326 251 321 245 q 346 302 332 269 q 404 453 365 353 q 388 473 393 461 q 382 500 382 486 q 400 544 382 526 q 445 563 418 563 q 446 563 445 563 q 449 563 448 563 q 490 543 472 560 q 507 500 507 525 q 500 472 507 484 q 481 450 494 458 q 555 209 506 369 q 567 163 562 186 q 581 118 574 141 z "},"R":{"ha":639,"x_min":38,"x_max":605,"o":"m 38 1000 q 380 1000 152 1000 q 541 849 433 949 q 541 674 541 791 q 415 472 499 608 q 560 99 463 347 q 585 99 568 99 q 605 0 591 65 q 434 0 548 0 q 434 84 434 28 q 453 84 441 84 q 321 465 408 212 q 237 465 293 465 q 237 578 237 502 q 347 578 274 578 q 449 724 381 627 q 449 821 449 757 q 359 924 419 856 q 250 924 323 924 q 205 856 235 902 q 205 122 205 612 q 216 99 209 114 q 216 45 216 81 q 260 45 231 45 q 260 0 260 30 q 38 0 187 0 q 38 35 38 12 q 66 35 47 35 q 66 99 66 57 q 98 119 77 106 q 98 853 98 365 q 38 929 77 879 q 38 1000 38 954 z "},"S":{"ha":528,"x_min":23,"x_max":500,"o":"m 499 292 q 500 281 500 286 q 496 240 500 260 q 484 193 492 216 q 448 127 472 157 q 395 72 422 99 q 335 28 368 46 q 264 5 301 11 q 212 0 236 0 q 206 0 209 0 q 138 0 180 0 q 81 0 138 0 q 27 0 23 0 q 27 31 27 0 q 27 103 27 62 q 27 195 27 151 q 27 240 27 240 q 52 240 35 240 q 57 233 53 237 q 62 227 61 229 q 87 170 72 197 q 126 121 103 142 q 183 84 151 99 q 248 73 214 69 q 319 103 278 73 q 377 171 361 134 q 389 206 385 189 q 393 244 392 225 q 393 254 393 248 q 393 263 393 259 q 393 274 393 269 q 392 285 393 279 q 389 305 391 296 q 387 326 388 316 q 359 396 378 365 q 308 453 339 427 q 273 477 292 467 q 233 499 254 490 q 180 519 233 499 q 106 559 129 540 q 94 568 100 563 q 83 578 88 574 q 58 610 68 593 q 42 647 49 627 q 24 745 28 692 q 23 765 23 754 q 35 841 23 806 q 80 921 49 884 q 152 978 111 958 q 233 996 190 997 q 309 966 278 994 q 328 945 319 956 q 350 930 339 935 q 376 937 363 929 q 395 955 387 944 q 407 975 403 964 q 408 998 411 986 q 399 1019 407 1009 q 378 1028 391 1028 q 357 1019 365 1029 q 353 998 349 1008 q 336 1004 343 997 q 328 1020 330 1010 q 330 1039 326 1029 q 338 1055 332 1048 q 387 1082 355 1078 q 399 1084 392 1084 q 441 1069 422 1084 q 471 1024 463 1053 q 477 967 477 996 q 473 898 479 932 q 458 830 469 864 q 439 788 450 808 q 408 754 427 768 q 399 773 406 765 q 382 788 392 781 q 377 791 380 789 q 374 795 374 793 q 373 802 373 799 q 374 807 374 804 q 370 829 374 819 q 358 848 365 838 q 332 882 347 867 q 301 911 317 898 q 263 930 285 924 q 221 936 243 939 q 165 910 190 932 q 130 857 141 887 q 123 795 121 827 q 136 732 126 762 q 163 678 146 704 q 203 633 179 652 q 270 595 233 609 q 340 564 307 583 q 404 517 374 545 q 453 456 434 488 q 487 377 475 419 q 499 292 499 335 z "},"T":{"ha":610,"x_min":24,"x_max":586,"o":"m 586 1000 q 586 863 586 954 q 477 913 534 914 q 359 863 422 911 q 359 552 359 758 q 388 524 369 543 q 358 495 378 514 q 358 142 358 377 q 368 126 362 137 q 368 96 368 117 q 392 76 376 90 q 411 57 399 71 q 411 1 411 38 q 186 1 336 1 q 186 62 186 22 q 206 92 193 72 q 227 95 213 92 q 227 122 227 103 q 244 140 232 129 q 244 495 244 258 q 212 524 233 505 q 245 552 222 533 q 245 863 245 655 q 144 906 199 906 q 26 863 90 905 q 26 1000 26 909 q 24 1000 26 1000 q 305 1000 165 1000 q 586 1000 446 1000 z "},"U":{"ha":694,"x_min":30,"x_max":663,"o":"m 589 880 q 589 164 589 642 q 591 103 587 119 q 613 56 594 87 q 515 33 564 46 q 419 4 465 19 q 273 -58 334 -26 q 210 -114 213 -92 q 203 -58 212 -87 q 179 -3 194 -30 q 122 90 153 47 q 90 153 90 130 q 90 883 90 396 q 64 929 79 911 q 30 954 49 947 q 30 1000 30 970 q 278 1000 113 1000 q 259 909 271 970 q 250 909 256 909 q 222 894 233 905 q 210 865 213 883 q 210 151 210 627 q 227 115 214 127 q 258 99 240 103 q 414 99 311 99 q 452 114 435 100 q 479 151 468 127 q 479 868 479 389 q 471 894 477 884 q 450 909 464 905 q 437 909 445 909 q 416 1000 430 939 q 663 1000 499 1000 q 663 962 663 987 q 616 929 631 949 q 589 880 601 909 z "},"V":{"ha":722,"x_min":37,"x_max":696,"o":"m 517 1000 q 696 1000 576 1000 q 696 928 696 977 q 669 917 681 926 q 646 892 655 907 q 414 1 568 595 q 430 -16 423 -5 q 435 -41 435 -27 q 420 -76 435 -61 q 385 -90 407 -90 q 350 -76 365 -90 q 335 -41 335 -61 q 342 -15 335 -27 q 359 1 349 -4 q 81 892 267 298 q 64 918 77 906 q 37 928 50 930 q 37 1000 37 952 q 218 1000 96 1000 q 216 926 217 975 q 197 914 203 925 q 186 891 190 903 q 366 327 247 703 q 384 316 374 316 q 401 327 392 317 q 563 892 456 515 q 548 920 560 910 q 517 928 537 928 q 517 964 517 945 q 517 1000 517 982 m 384 -60 q 397 -54 392 -60 q 403 -41 403 -49 q 397 -26 403 -31 q 384 -20 392 -20 q 370 -26 376 -20 q 365 -41 365 -31 q 370 -54 365 -49 q 384 -60 376 -60 z "},"W":{"ha":1028,"x_min":31,"x_max":996,"o":"m 254 1000 q 251 968 252 989 q 208 891 236 943 q 388 251 269 678 q 476 598 418 368 q 381 911 445 703 q 321 1000 362 941 q 724 1000 456 1000 q 666 891 705 964 q 514 891 616 891 q 678 278 568 688 q 812 909 723 488 q 777 1000 800 939 q 996 1000 850 1000 q 913 886 968 962 q 711 69 846 614 q 711 0 711 46 q 633 0 685 0 q 633 60 633 20 q 509 483 591 201 q 416 49 479 339 q 416 0 416 33 q 328 0 387 0 q 328 52 328 18 q 87 891 248 331 q 31 1000 69 928 q 254 1000 106 1000 z "},"X":{"ha":667,"x_min":26,"x_max":636,"o":"m 636 954 q 612 945 624 952 q 591 926 601 939 q 399 532 528 795 q 557 104 452 389 q 586 52 567 77 q 631 -1 605 24 q 363 -1 541 -1 q 363 31 363 9 q 397 52 384 39 q 419 81 412 64 q 317 380 385 182 q 170 46 269 269 q 172 22 165 34 q 183 0 179 9 q 26 0 132 0 q 69 42 50 20 q 102 90 88 64 q 281 476 161 218 q 121 918 227 624 q 84 948 117 936 q 34 967 53 959 q 34 1000 34 978 q 285 1000 118 1000 q 285 944 285 982 q 267 935 271 940 q 262 921 262 928 q 361 612 296 818 q 510 913 411 712 q 503 940 510 928 q 483 962 495 952 q 483 1000 483 974 q 636 1000 534 1000 q 636 977 636 989 q 636 954 636 966 z "},"Y":{"ha":667,"x_min":33,"x_max":635,"o":"m 635 1000 q 633 951 635 983 q 581 909 601 933 q 553 853 559 884 q 385 579 498 761 q 385 113 385 423 q 430 0 400 75 q 239 0 366 0 q 239 77 239 26 q 269 113 248 90 q 269 579 269 269 q 126 818 221 659 q 90 884 111 856 q 33 932 66 914 q 33 1000 33 955 q 247 1000 104 1000 q 208 952 221 978 q 195 898 194 926 q 336 652 241 815 q 461 857 378 720 q 450 920 457 878 q 450 1000 450 947 q 543 1000 496 1000 q 635 1000 590 1000 z "},"Z":{"ha":583,"x_min":27,"x_max":556,"o":"m 556 1000 q 556 924 556 975 q 191 81 434 643 q 423 81 269 81 q 457 102 450 90 q 472 151 465 114 q 533 151 492 151 q 533 61 533 122 q 533 0 533 0 q 27 0 365 0 q 419 914 157 305 q 214 914 351 914 q 161 883 179 909 q 127 821 142 856 q 127 730 127 791 q 66 730 107 730 q 66 916 66 791 q 56 943 65 933 q 27 952 46 952 q 27 977 27 964 q 27 1000 27 989 q 292 1000 160 1000 q 556 1000 423 1000 z "},"[":{"ha":250,"x_min":34,"x_max":224,"o":"m 109 1000 q 109 0 109 667 q 175 -1 130 0 q 222 -83 191 -28 q 37 -37 160 -68 q 34 1047 35 324 q 224 1085 98 1059 q 175 1001 208 1057 q 109 1000 153 1001 z "},"\\":{"ha":416,"x_min":28,"x_max":388,"o":"m 385 -47 q 388 -84 387 -60 q 260 -84 346 -84 q 236 -84 252 -84 q 202 -84 225 -84 q 202 -58 202 -75 q 225 -23 210 -46 q 243 -1 231 -15 q 247 33 244 9 q 256 60 250 42 q 83 940 198 353 q 73 967 79 949 q 69 1001 72 978 q 52 1023 62 1009 q 28 1058 43 1035 q 28 1084 28 1067 q 62 1084 39 1084 q 87 1084 71 1084 q 214 1084 129 1084 q 212 1047 213 1072 q 205 1031 209 1042 q 195 1013 202 1025 q 182 997 190 1008 q 174 967 179 987 q 170 949 172 960 q 343 52 228 650 q 347 33 345 45 q 355 3 350 23 q 369 -12 359 -3 q 378 -31 372 -19 q 385 -47 381 -37 z "},"]":{"ha":250,"x_min":34,"x_max":224,"o":"m 83 1001 q 34 1085 66 1029 q 224 1047 98 1073 q 221 -37 222 686 q 35 -83 159 -52 q 83 -1 52 -56 q 149 0 104 -1 q 149 1000 149 334 q 83 1001 126 1001 z "},"^":{"ha":472,"x_min":33,"x_max":437,"o":"m 224 970 q 437 819 294 920 q 387 766 419 802 q 301 829 358 787 q 228 849 269 853 q 159 819 189 846 q 98 761 138 800 q 33 822 76 781 q 127 895 80 859 q 224 970 175 933 z "},"_":{"ha":445,"x_min":28,"x_max":416,"o":"m 28 0 q 416 0 125 0 q 416 56 416 14 q 28 56 320 56 q 28 0 28 42 z "},"`":{"ha":194,"x_min":27,"x_max":167,"o":"m 117 972 q 167 804 133 917 q 99 810 144 807 q 27 972 76 864 q 117 972 57 972 z "},"a":{"ha":610,"x_min":24,"x_max":582,"o":"m 534 61 q 582 27 551 50 q 582 0 582 19 q 430 0 532 0 q 430 35 430 12 q 430 35 430 35 q 430 37 430 37 q 361 -4 399 11 q 278 -18 321 -18 q 208 -7 241 -18 q 146 22 174 4 q 137 30 141 26 q 125 38 132 34 q 117 39 122 38 q 103 42 110 41 q 100 49 102 45 q 99 56 99 53 q 98 61 98 57 q 99 66 98 64 q 98 68 98 66 q 98 68 98 68 q 83 69 90 68 q 68 71 76 69 q 69 88 68 80 q 72 104 71 96 q 71 104 71 104 q 71 106 71 106 q 61 107 66 107 q 49 111 56 109 q 45 119 46 114 q 39 129 42 123 q 46 133 42 132 q 54 138 50 136 q 54 140 54 140 q 54 140 54 140 q 52 146 53 144 q 50 152 52 148 q 42 153 46 152 q 33 156 37 155 q 31 167 31 161 q 30 178 30 172 q 35 180 33 179 q 42 183 38 182 q 41 189 42 186 q 41 193 41 191 q 33 195 37 194 q 24 198 30 197 q 24 209 24 203 q 24 221 24 214 q 31 224 28 222 q 39 227 35 225 q 39 233 39 229 q 39 239 39 236 q 33 243 35 241 q 24 245 30 244 q 24 254 24 250 q 24 263 24 258 q 34 264 30 263 q 42 267 38 266 q 42 274 42 270 q 45 281 43 278 q 41 285 42 282 q 35 289 38 286 q 35 297 35 293 q 37 305 35 301 q 46 307 41 305 q 57 307 50 307 q 60 313 58 311 q 62 320 61 316 q 56 326 60 323 q 50 331 53 327 q 52 338 52 335 q 54 343 53 340 q 66 345 61 345 q 76 347 71 346 q 77 350 77 349 q 79 351 79 350 q 77 363 81 358 q 75 373 75 369 q 79 378 77 376 q 81 382 80 380 q 91 382 85 382 q 102 382 95 382 q 103 385 103 384 q 106 388 104 387 q 107 399 107 393 q 110 411 109 404 q 121 412 115 411 q 133 414 126 412 q 172 438 151 427 q 222 454 195 449 q 250 460 236 457 q 278 461 263 461 q 335 454 308 461 q 388 435 362 448 q 354 469 372 454 q 315 496 336 486 q 288 506 307 500 q 255 510 269 510 q 201 505 228 510 q 144 484 172 499 q 39 469 110 480 q 24 502 34 480 q 148 564 65 522 q 233 582 191 582 q 316 570 277 583 q 317 571 317 570 q 328 576 323 572 q 342 585 335 581 q 350 582 346 583 q 359 579 354 582 q 359 570 359 575 q 358 557 359 563 q 366 548 361 555 q 377 556 372 553 q 389 563 382 559 q 399 555 395 559 q 410 545 404 551 q 406 536 408 541 q 403 528 404 532 q 408 526 404 526 q 412 524 411 525 q 420 528 415 526 q 430 532 426 530 q 448 514 437 526 q 444 506 445 511 q 439 496 442 502 q 442 491 441 494 q 446 487 444 490 q 456 491 450 488 q 467 495 460 492 q 480 480 471 490 q 475 472 477 476 q 469 463 472 467 q 473 456 472 460 q 477 450 476 453 q 486 450 481 449 q 495 452 490 450 q 500 444 498 448 q 507 437 503 441 q 500 427 503 431 q 494 418 498 423 q 496 411 495 415 q 499 404 498 407 q 509 404 503 404 q 519 406 513 404 q 524 399 522 403 q 526 393 525 396 q 518 381 522 387 q 511 370 515 376 q 519 358 511 359 q 533 350 529 357 q 534 343 533 347 q 534 338 534 340 q 515 317 528 331 q 525 304 521 311 q 534 290 529 297 q 526 279 529 285 q 517 269 522 274 q 514 263 515 266 q 513 256 514 260 q 514 240 514 248 q 515 222 515 231 q 513 187 515 205 q 506 155 511 171 q 506 141 506 151 q 514 115 509 133 q 519 81 515 104 q 528 72 524 77 q 534 61 530 66 m 278 80 q 376 122 336 80 q 415 221 415 163 q 373 321 415 279 q 274 362 332 362 q 256 361 266 362 q 240 358 248 361 q 237 358 239 358 q 235 358 236 358 q 212 351 222 357 q 191 339 199 346 q 179 328 187 335 q 171 320 176 326 q 170 317 171 319 q 168 317 170 317 q 168 316 168 316 q 160 307 165 313 q 160 305 160 307 q 155 298 157 304 q 153 297 153 298 q 153 296 153 297 q 149 289 152 293 q 144 281 148 286 q 144 277 144 278 q 141 273 142 274 q 138 264 141 270 q 137 255 138 262 q 137 251 137 254 q 136 247 136 250 q 134 239 136 244 q 134 231 134 236 q 134 228 134 229 q 134 224 134 225 q 134 214 134 220 q 136 205 136 210 q 137 201 137 203 q 137 198 137 199 q 138 189 138 195 q 138 180 138 186 q 140 176 140 179 q 141 174 141 175 q 146 164 142 171 q 149 159 148 161 q 152 155 151 156 q 152 153 152 153 q 159 141 153 149 q 163 137 160 140 q 167 132 164 134 q 168 130 167 132 q 180 115 172 126 q 184 113 183 114 q 187 111 186 113 q 191 109 190 110 q 194 107 194 109 q 198 106 195 107 q 199 104 199 104 q 237 87 217 92 q 278 80 256 80 z "},"b":{"ha":555,"x_min":39,"x_max":521,"o":"m 521 269 q 510 262 519 264 q 492 255 500 259 q 491 240 491 247 q 488 225 490 232 q 503 214 495 220 q 510 208 511 209 q 507 198 510 205 q 498 195 507 195 q 480 193 490 194 q 475 179 477 186 q 469 164 472 171 q 480 151 475 157 q 484 141 486 144 q 480 133 483 138 q 471 132 479 132 q 453 134 463 133 q 445 121 449 127 q 434 109 439 114 q 441 94 438 100 q 442 83 445 85 q 435 76 441 81 q 426 77 434 75 q 411 84 418 80 q 397 75 404 80 q 384 65 392 71 q 388 49 387 57 q 385 38 389 39 q 377 34 382 37 q 368 38 376 33 q 354 49 361 42 q 339 42 346 46 q 324 38 332 39 q 323 19 324 28 q 319 9 321 11 q 311 7 316 8 q 302 14 308 5 q 293 27 298 20 q 250 27 278 27 q 243 0 247 19 q 41 0 175 0 q 41 46 41 15 q 65 61 54 53 q 81 75 76 68 q 113 136 92 95 q 79 144 100 138 q 76 171 76 157 q 79 197 76 183 q 92 201 83 198 q 92 859 92 420 q 84 884 90 867 q 79 918 83 895 q 64 939 73 925 q 39 975 56 951 q 39 1000 39 983 q 73 1000 50 1000 q 98 1000 81 1000 q 224 1000 140 1000 q 222 964 224 987 q 216 947 221 959 q 206 929 213 941 q 191 914 201 924 q 184 884 189 905 q 180 867 183 879 q 180 160 180 631 q 224 119 195 146 q 296 119 248 119 q 366 164 338 132 q 403 254 393 195 q 350 393 397 340 q 209 465 301 445 q 209 555 209 495 q 267 555 229 555 q 277 521 271 543 q 286 518 282 519 q 296 515 292 517 q 305 529 300 522 q 313 534 311 536 q 321 532 316 534 q 326 522 324 530 q 327 503 327 513 q 340 496 335 499 q 354 490 347 494 q 368 503 359 496 q 378 509 377 510 q 387 505 381 507 q 388 492 391 503 q 384 473 387 481 q 396 465 391 469 q 408 457 403 461 q 425 465 416 461 q 435 467 434 469 q 442 460 438 464 q 441 449 445 457 q 433 433 437 441 q 444 422 438 429 q 452 410 448 416 q 469 414 461 412 q 480 411 477 414 q 484 403 481 408 q 480 393 486 400 q 469 381 475 387 q 475 366 472 373 q 481 351 479 358 q 499 350 490 351 q 507 346 507 349 q 510 338 509 343 q 505 330 511 335 q 490 320 496 324 q 492 304 491 312 q 494 289 492 296 q 511 283 502 286 q 521 277 521 279 q 521 273 521 274 q 521 269 521 270 z "},"c":{"ha":556,"x_min":12,"x_max":529,"o":"m 434 134 q 475 163 446 142 q 515 190 502 184 q 524 180 519 186 q 528 168 528 175 q 492 106 528 148 q 433 37 456 64 q 425 33 429 34 q 416 27 420 30 q 304 0 359 0 q 282 1 293 0 q 157 42 214 7 q 142 52 149 46 q 126 62 134 56 q 115 64 122 62 q 100 66 109 65 q 99 73 99 69 q 96 81 98 77 q 95 90 95 85 q 94 98 95 94 q 77 98 85 98 q 58 100 69 99 q 61 119 60 110 q 64 138 64 129 q 53 142 60 141 q 38 146 46 144 q 33 155 35 151 q 27 167 30 160 q 35 172 31 168 q 45 178 39 175 q 45 183 45 180 q 45 190 45 186 q 33 193 39 191 q 20 195 27 194 q 19 209 19 202 q 18 222 18 216 q 27 227 23 224 q 35 231 31 228 q 33 236 34 233 q 31 240 33 239 q 22 243 27 241 q 12 247 16 245 q 12 260 12 254 q 12 274 12 266 q 20 277 16 274 q 31 281 24 278 q 31 286 31 283 q 33 292 33 289 q 24 296 28 294 q 14 301 19 298 q 14 311 14 305 q 14 321 14 316 q 24 324 18 321 q 35 327 30 326 q 37 340 42 335 q 24 351 31 346 q 24 361 24 357 q 26 370 24 366 q 38 373 31 372 q 50 374 43 374 q 53 380 52 377 q 56 387 54 382 q 47 393 52 391 q 38 401 43 397 q 41 408 39 406 q 42 415 41 412 q 56 418 49 416 q 69 419 62 418 q 71 435 76 427 q 68 450 66 442 q 72 454 69 452 q 76 460 73 457 q 88 460 81 460 q 103 460 95 460 q 106 476 104 468 q 109 494 107 484 q 122 494 115 494 q 137 496 129 495 q 184 526 157 514 q 247 544 212 540 q 297 548 273 548 q 345 545 321 548 q 433 514 392 538 q 492 445 456 487 q 529 382 529 404 q 528 382 529 382 q 524 370 528 374 q 515 359 519 365 q 475 389 502 368 q 434 418 446 411 q 374 454 408 441 q 305 468 342 468 q 170 412 225 468 q 113 277 113 355 q 170 141 113 197 q 305 84 225 84 q 374 98 342 84 q 434 134 408 111 z "},"d":{"ha":583,"x_min":20,"x_max":557,"o":"m 47 289 q 49 304 47 296 q 52 320 50 312 q 37 330 43 324 q 30 338 30 335 q 33 346 31 340 q 42 350 33 349 q 60 351 52 351 q 66 366 62 358 q 72 381 69 373 q 61 393 66 387 q 57 403 56 400 q 61 411 58 406 q 72 414 62 414 q 88 410 80 412 q 98 422 94 416 q 109 433 103 429 q 100 449 104 441 q 99 460 96 457 q 106 467 100 463 q 117 465 107 469 q 133 457 125 461 q 145 465 138 461 q 157 473 151 469 q 153 492 155 481 q 155 505 151 503 q 163 509 157 506 q 172 503 164 510 q 187 490 182 496 q 199 496 194 494 q 214 503 206 499 q 214 522 214 513 q 220 532 216 530 q 228 534 222 533 q 236 529 231 536 q 245 515 241 522 q 254 518 250 517 q 263 521 259 519 q 274 555 267 532 q 332 555 293 555 q 332 465 332 525 q 191 393 240 445 q 138 254 142 340 q 175 164 146 195 q 245 119 203 132 q 316 119 270 119 q 361 160 331 133 q 361 1000 361 439 q 444 1000 388 1000 q 468 1000 452 1000 q 557 1000 498 1000 q 557 975 557 991 q 477 939 530 963 q 463 918 472 932 q 457 884 461 907 q 449 859 454 876 q 449 201 449 639 q 463 197 453 199 q 464 171 464 183 q 463 144 464 157 q 429 136 452 141 q 460 75 439 115 q 476 61 465 68 q 500 46 487 53 q 500 0 500 31 q 298 0 433 0 q 292 27 296 9 q 248 27 277 27 q 239 14 243 20 q 231 7 233 5 q 222 9 228 8 q 218 19 218 11 q 217 38 217 28 q 202 42 209 39 q 187 49 195 46 q 174 38 180 42 q 164 34 165 33 q 156 38 161 35 q 153 49 152 39 q 157 65 155 57 q 144 75 149 71 q 130 84 137 80 q 115 77 123 80 q 106 76 107 75 q 99 83 103 79 q 99 94 96 85 q 107 109 103 100 q 96 121 102 114 q 87 134 91 127 q 71 132 79 133 q 61 133 62 132 q 57 141 60 136 q 61 151 56 144 q 72 164 66 157 q 66 179 69 171 q 61 193 62 186 q 43 195 52 194 q 33 198 34 195 q 30 208 33 201 q 38 214 30 209 q 53 225 45 220 q 50 240 52 232 q 49 255 50 247 q 31 262 41 259 q 20 269 22 264 q 20 273 20 270 q 20 277 20 274 q 30 283 20 279 q 47 289 39 286 z "},"e":{"ha":555,"x_min":7,"x_max":528,"o":"m 264 351 q 429 351 320 351 q 429 416 429 373 q 370 453 403 439 q 300 467 338 467 q 164 411 221 467 q 109 275 109 354 q 164 140 109 195 q 300 83 221 83 q 370 96 338 83 q 429 133 403 110 q 468 161 441 141 q 511 191 496 183 q 518 182 514 187 q 524 170 524 176 q 487 107 524 149 q 427 38 450 65 q 419 34 423 35 q 411 30 415 31 q 298 1 355 1 q 277 3 288 1 q 152 43 210 8 q 137 53 144 47 q 121 64 130 57 q 110 65 117 64 q 95 68 104 66 q 94 75 95 71 q 91 83 92 79 q 90 91 91 87 q 88 99 90 95 q 72 99 80 99 q 54 102 64 100 q 57 121 54 111 q 60 140 58 130 q 47 144 54 142 q 33 148 41 145 q 28 156 31 152 q 22 168 24 161 q 30 174 26 170 q 39 179 35 176 q 39 184 39 182 q 39 191 39 187 q 28 194 34 193 q 15 197 22 195 q 14 210 14 203 q 12 224 14 217 q 22 228 18 225 q 30 232 26 229 q 28 237 28 235 q 26 241 27 240 q 16 244 22 243 q 7 248 12 247 q 7 262 7 255 q 7 275 7 267 q 15 278 11 277 q 26 282 20 279 q 27 288 26 285 q 27 293 27 290 q 19 297 23 296 q 8 302 14 300 q 8 312 8 307 q 8 323 8 317 q 19 326 14 323 q 30 328 24 327 q 33 342 38 336 q 19 353 26 347 q 19 362 19 358 q 20 372 19 368 q 33 374 27 373 q 45 377 38 376 q 47 381 46 378 q 52 388 49 384 q 42 395 47 392 q 33 403 38 399 q 35 410 34 407 q 37 416 37 414 q 50 419 45 418 q 64 420 57 420 q 66 437 71 429 q 62 452 61 444 q 66 456 64 453 q 71 461 68 458 q 83 461 77 461 q 98 461 90 461 q 100 477 99 469 q 104 495 103 486 q 117 495 110 495 q 132 498 123 496 q 179 528 152 515 q 241 545 208 541 q 292 549 267 549 q 339 547 316 549 q 427 515 387 540 q 502 465 452 499 q 505 366 492 414 q 528 277 517 319 q 506 262 522 266 q 468 259 490 258 q 369 270 426 259 q 264 283 313 279 q 194 278 224 279 q 159 283 165 277 q 201 327 174 317 q 264 351 228 338 z "},"f":{"ha":639,"x_min":26,"x_max":612,"o":"m 518 982 q 612 872 549 945 q 560 836 594 860 q 499 903 540 857 q 453 922 471 917 q 410 928 437 928 q 378 924 396 928 q 350 914 359 920 q 278 845 304 891 q 245 745 252 800 q 245 538 245 675 q 338 538 277 538 q 343 540 340 538 q 346 543 345 541 q 357 560 350 549 q 365 571 365 570 q 363 509 365 540 q 368 452 362 479 q 365 441 370 445 q 354 442 359 438 q 343 450 349 446 q 334 458 338 454 q 330 460 331 460 q 327 461 328 461 q 245 461 300 461 q 245 125 245 349 q 247 107 250 115 q 252 96 244 100 q 264 60 256 84 q 271 47 266 56 q 286 38 275 43 q 286 0 286 24 q 109 0 227 0 q 109 35 109 12 q 134 53 117 41 q 140 79 137 61 q 153 106 144 88 q 153 461 153 224 q 68 461 125 461 q 64 460 66 461 q 61 458 62 460 q 52 450 57 456 q 41 442 46 446 q 30 442 35 438 q 26 450 26 445 q 26 452 26 450 q 31 509 33 479 q 30 571 30 538 q 37 560 30 570 q 49 543 45 549 q 53 540 50 541 q 57 538 54 538 q 153 538 90 538 q 153 670 153 582 q 151 678 152 674 q 148 686 149 682 q 138 697 142 692 q 129 708 134 703 q 140 722 136 716 q 149 736 144 728 q 129 755 142 742 q 130 762 129 758 q 130 768 130 765 q 144 776 134 774 q 153 789 153 777 q 145 799 149 793 q 137 811 141 804 q 141 818 138 814 q 144 823 142 821 q 156 822 151 822 q 165 822 160 822 q 168 829 167 825 q 171 836 168 833 q 164 845 167 841 q 157 854 161 850 q 163 861 160 859 q 170 869 167 865 q 178 868 174 868 q 186 868 183 867 q 190 875 189 871 q 194 880 193 878 q 189 890 191 884 q 183 899 186 894 q 197 913 189 903 q 209 909 203 910 q 218 906 214 906 q 221 910 220 907 q 225 914 222 911 q 220 925 222 920 q 217 932 218 929 q 235 949 222 939 q 244 945 240 948 q 252 941 250 944 q 258 944 255 943 q 263 945 260 945 q 259 955 262 949 q 255 964 258 959 q 266 972 260 968 q 277 981 271 977 q 288 974 282 977 q 298 967 293 971 q 307 975 301 970 q 305 987 307 981 q 305 997 305 993 q 316 1001 312 1000 q 324 1002 320 1002 q 336 994 331 998 q 347 989 342 991 q 349 987 347 989 q 431 1001 389 1001 q 518 982 475 1000 z "},"g":{"ha":556,"x_min":26,"x_max":505,"o":"m 453 353 q 454 279 453 353 q 454 113 454 208 q 456 31 454 72 q 456 -46 456 -9 q 454 -164 456 -117 q 453 -213 454 -212 q 449 -227 453 -224 q 437 -233 445 -229 q 312 -274 380 -267 q 290 -275 301 -275 q 179 -247 235 -275 q 170 -243 174 -245 q 161 -239 165 -241 q 102 -170 138 -212 q 66 -107 66 -127 q 71 -95 66 -99 q 79 -84 76 -90 q 119 -113 92 -91 q 160 -140 148 -133 q 220 -176 186 -163 q 289 -190 252 -190 q 328 -186 309 -190 q 366 -174 349 -180 q 366 395 366 16 q 321 435 351 408 q 251 435 298 435 q 180 391 208 422 q 144 300 152 358 q 197 161 148 213 q 336 90 245 109 q 336 0 336 60 q 278 0 317 0 q 269 34 275 11 q 259 37 263 34 q 251 39 255 38 q 241 24 247 31 q 232 19 236 19 q 224 22 229 20 q 220 33 221 23 q 218 52 218 42 q 205 57 212 54 q 193 64 198 61 q 178 52 186 57 q 167 46 170 45 q 159 50 164 47 q 157 61 156 52 q 161 80 160 72 q 149 90 156 84 q 138 98 144 94 q 121 90 130 94 q 110 88 113 85 q 103 95 109 90 q 106 104 102 96 q 113 121 109 114 q 103 132 109 126 q 94 144 98 138 q 77 141 85 142 q 66 142 68 140 q 62 152 65 146 q 65 160 61 153 q 77 174 71 167 q 71 189 73 180 q 65 203 68 195 q 47 203 56 203 q 38 209 38 205 q 35 217 37 212 q 42 225 34 220 q 56 235 49 231 q 54 250 56 241 q 52 266 53 258 q 35 271 43 267 q 26 278 26 274 q 26 286 26 281 q 35 293 27 289 q 53 298 45 296 q 56 315 54 307 q 57 330 57 321 q 42 339 50 335 q 35 347 34 345 q 38 355 37 350 q 47 359 39 358 q 66 361 57 359 q 71 376 68 369 q 77 391 73 382 q 65 403 71 396 q 62 412 61 411 q 66 420 64 415 q 76 422 66 423 q 92 419 84 422 q 102 433 96 427 q 111 446 107 439 q 104 461 107 453 q 103 471 102 469 q 110 477 106 473 q 121 476 113 480 q 136 469 127 473 q 148 479 141 475 q 161 488 155 484 q 159 506 160 498 q 160 517 157 514 q 168 521 163 518 q 178 517 171 522 q 193 506 184 511 q 208 511 199 509 q 221 517 214 514 q 222 534 221 526 q 227 544 224 544 q 236 547 229 545 q 243 541 239 548 q 254 526 248 533 q 297 526 267 526 q 304 555 298 536 q 505 555 370 555 q 505 509 505 538 q 480 494 491 500 q 464 479 469 487 q 434 418 454 458 q 468 410 445 415 q 469 384 469 396 q 468 357 469 370 q 460 355 464 355 q 453 353 457 354 z "},"h":{"ha":612,"x_min":31,"x_max":581,"o":"m 449 81 q 457 115 452 94 q 465 140 460 123 q 463 278 464 186 q 426 384 460 339 q 343 454 392 429 q 315 464 334 460 q 283 468 297 468 q 228 463 256 468 q 172 444 201 457 q 172 134 172 340 q 176 117 174 129 q 183 85 179 107 q 197 71 189 81 q 208 53 201 65 q 214 37 209 47 q 217 0 214 24 q 31 0 155 0 q 31 24 31 8 q 54 61 38 37 q 71 81 60 68 q 75 117 72 94 q 84 142 79 126 q 84 857 84 381 q 75 883 81 865 q 71 918 73 895 q 54 939 65 925 q 31 975 46 951 q 31 1000 31 983 q 217 1000 92 1000 q 214 964 216 987 q 208 947 212 959 q 197 929 203 941 q 183 914 193 924 q 176 883 180 903 q 172 865 175 878 q 172 536 172 755 q 259 555 217 553 q 343 541 302 555 q 343 543 343 541 q 345 543 345 543 q 355 549 350 545 q 368 557 361 553 q 378 553 372 556 q 391 551 384 552 q 387 541 388 545 q 385 529 385 536 q 393 521 388 526 q 404 528 399 525 q 415 534 410 530 q 426 526 420 530 q 437 518 431 522 q 433 509 434 513 q 429 500 430 505 q 434 498 431 499 q 439 496 437 496 q 446 500 442 498 q 457 505 452 502 q 475 486 463 498 q 472 479 473 483 q 467 468 469 475 q 471 464 469 467 q 473 460 472 461 q 483 463 477 461 q 495 467 488 465 q 509 453 499 463 q 503 444 505 449 q 498 435 500 439 q 502 429 499 431 q 506 422 503 426 q 513 422 509 422 q 522 423 518 423 q 529 416 525 419 q 534 408 532 412 q 528 400 530 404 q 521 391 525 396 q 524 384 524 387 q 526 377 525 380 q 536 377 532 377 q 547 378 541 377 q 551 372 549 374 q 555 365 553 369 q 547 354 551 359 q 538 343 543 349 q 548 330 538 331 q 562 323 557 328 q 562 316 562 319 q 563 309 563 313 q 543 290 556 304 q 552 277 548 283 q 563 263 556 270 q 553 252 557 258 q 544 240 549 247 q 543 221 544 231 q 537 201 541 212 q 537 161 537 179 q 536 133 536 142 q 540 115 537 127 q 547 85 543 106 q 563 71 552 81 q 572 53 566 65 q 579 37 575 47 q 581 0 579 24 q 410 0 524 0 q 410 24 410 8 q 433 61 418 37 q 441 72 437 66 q 449 81 445 77 z "},"i":{"ha":250,"x_min":37,"x_max":214,"o":"m 186 583 q 186 529 186 564 q 186 511 186 522 q 183 486 184 502 q 176 457 179 471 q 176 427 175 442 q 174 412 175 423 q 174 126 174 317 q 175 109 178 117 q 180 96 172 100 q 191 61 184 84 q 198 49 194 57 q 214 38 203 45 q 214 1 214 26 q 37 1 155 1 q 37 35 37 12 q 62 54 45 42 q 68 80 65 62 q 81 106 72 88 q 81 403 81 205 q 80 429 79 418 q 73 449 83 439 q 69 496 72 465 q 71 526 69 514 q 62 549 71 540 q 62 583 62 560 q 61 583 62 583 q 126 583 96 583 q 186 583 155 583 m 107 652 q 68 680 79 656 q 66 734 57 704 q 100 772 75 758 q 126 780 114 780 q 149 774 137 780 q 179 741 167 765 q 189 692 190 718 q 160 656 187 665 q 107 652 133 648 z "},"j":{"ha":667,"x_min":35,"x_max":631,"o":"m 457 652 q 418 681 429 656 q 416 735 407 704 q 450 773 425 760 q 476 780 464 780 q 499 774 487 780 q 529 742 517 765 q 538 693 540 718 q 510 658 537 666 q 457 652 483 650 m 430 583 q 631 583 498 583 q 631 557 631 575 q 552 521 604 545 q 537 503 547 515 q 534 491 537 499 q 530 468 533 484 q 526 454 529 464 q 525 441 525 446 q 526 427 525 434 q 524 412 525 423 q 524 72 524 300 q 526 65 525 68 q 529 57 528 61 q 538 45 534 50 q 547 35 543 39 q 537 20 541 27 q 528 7 533 14 q 545 -12 534 0 q 545 -19 545 -16 q 544 -24 544 -22 q 532 -33 540 -31 q 522 -46 522 -34 q 530 -57 526 -52 q 537 -68 533 -62 q 534 -75 537 -71 q 530 -80 533 -77 q 519 -79 525 -80 q 510 -79 515 -79 q 507 -85 509 -83 q 505 -94 506 -90 q 511 -103 509 -98 q 518 -111 514 -107 q 511 -119 515 -115 q 506 -126 509 -122 q 496 -125 502 -125 q 488 -125 492 -123 q 484 -132 487 -127 q 480 -137 483 -134 q 486 -146 484 -141 q 491 -156 488 -152 q 477 -170 487 -160 q 467 -165 472 -167 q 457 -163 461 -164 q 453 -167 454 -164 q 450 -171 452 -168 q 454 -182 453 -178 q 458 -189 456 -186 q 441 -208 452 -195 q 430 -203 435 -205 q 422 -198 426 -201 q 418 -201 420 -199 q 412 -203 415 -202 q 415 -212 414 -208 q 419 -221 418 -216 q 410 -229 414 -225 q 399 -237 404 -233 q 387 -231 392 -233 q 377 -224 381 -228 q 368 -232 373 -227 q 369 -244 369 -239 q 369 -254 369 -250 q 359 -258 363 -256 q 351 -259 355 -259 q 339 -252 345 -255 q 328 -245 334 -248 q 327 -244 327 -245 q 243 -258 286 -258 q 157 -239 201 -256 q 35 -176 117 -218 q 49 -144 39 -165 q 155 -160 84 -149 q 210 -179 182 -175 q 266 -184 239 -184 q 297 -180 279 -184 q 326 -171 316 -176 q 403 -100 370 -148 q 444 0 435 -54 q 430 69 439 23 q 430 144 430 76 q 430 296 429 210 q 430 429 430 362 q 430 536 430 494 q 430 571 430 557 q 430 583 430 583 z "},"k":{"ha":583,"x_min":23,"x_max":555,"o":"m 282 282 q 522 41 362 201 q 555 24 533 35 q 555 0 555 16 q 427 0 511 0 q 220 214 358 72 q 220 0 220 142 q 80 0 174 0 q 80 46 80 15 q 104 61 94 53 q 121 75 115 68 q 132 201 125 117 q 132 859 132 420 q 123 884 129 867 q 118 918 122 895 q 103 939 113 925 q 23 975 76 951 q 23 1000 23 983 q 113 1000 53 1000 q 137 1000 121 1000 q 218 1000 164 1000 q 218 346 218 783 q 399 515 278 403 q 358 529 385 519 q 358 557 358 538 q 555 557 423 557 q 540 529 549 548 q 507 515 529 525 q 395 399 450 457 q 282 282 338 340 z "},"l":{"ha":250,"x_min":33,"x_max":218,"o":"m 216 37 q 218 0 217 24 q 91 0 176 0 q 66 0 83 0 q 33 0 56 0 q 33 24 33 8 q 56 61 41 37 q 73 81 61 68 q 77 117 75 94 q 87 142 80 126 q 87 857 87 381 q 77 883 83 865 q 73 918 76 895 q 56 939 66 925 q 33 975 49 951 q 33 1000 33 983 q 66 1000 43 1000 q 91 1000 75 1000 q 218 1000 133 1000 q 216 964 217 987 q 209 947 213 959 q 199 929 206 941 q 186 914 194 924 q 178 883 183 903 q 174 865 176 878 q 174 134 174 621 q 178 117 175 129 q 186 85 180 107 q 199 71 190 81 q 209 53 202 65 q 216 37 212 47 z "},"m":{"ha":1027,"x_min":31,"x_max":998,"o":"m 867 81 q 873 115 869 94 q 882 140 876 123 q 879 278 880 186 q 842 384 878 339 q 760 454 808 429 q 732 464 750 460 q 700 468 713 468 q 644 463 673 468 q 589 444 617 457 q 589 134 589 340 q 593 117 590 129 q 600 85 595 107 q 613 71 605 81 q 624 53 617 65 q 631 37 625 47 q 633 0 631 24 q 448 0 571 0 q 448 23 448 8 q 471 60 454 35 q 487 80 476 66 q 491 115 488 92 q 502 141 495 123 q 515 205 506 163 q 515 420 515 277 q 507 448 513 430 q 362 481 438 488 q 217 415 288 473 q 217 134 217 321 q 218 117 217 129 q 225 85 220 107 q 239 71 229 81 q 248 53 241 65 q 255 37 251 47 q 258 0 256 24 q 72 0 197 0 q 72 23 72 8 q 96 60 80 35 q 113 80 102 66 q 117 115 114 92 q 126 141 119 123 q 140 205 130 163 q 140 420 140 277 q 132 448 137 430 q 126 480 130 458 q 111 502 121 487 q 31 537 84 514 q 31 563 31 545 q 217 563 94 563 q 217 509 217 544 q 370 560 289 559 q 522 536 450 562 q 591 536 545 536 q 678 555 635 553 q 761 541 720 555 q 762 543 761 543 q 773 549 768 545 q 785 557 779 553 q 796 553 791 556 q 808 551 802 552 q 804 541 806 545 q 803 529 804 536 q 811 521 806 526 q 822 528 817 525 q 833 534 827 530 q 844 526 838 530 q 854 518 849 522 q 850 509 852 513 q 848 500 848 505 q 852 498 849 499 q 857 496 854 496 q 865 500 860 498 q 875 505 869 502 q 892 486 880 498 q 890 479 891 483 q 884 468 887 475 q 888 464 887 467 q 891 460 890 461 q 901 463 895 461 q 913 467 906 465 q 926 453 917 463 q 921 444 924 449 q 916 435 918 439 q 920 429 917 431 q 924 422 921 426 q 932 422 926 422 q 940 423 936 423 q 947 416 943 419 q 952 408 949 412 q 945 400 948 404 q 939 391 943 396 q 943 384 941 387 q 944 377 943 380 q 954 377 949 377 q 966 378 959 377 q 968 372 967 374 q 972 365 971 369 q 964 354 968 359 q 956 343 960 349 q 966 330 956 331 q 979 323 975 328 q 979 316 979 319 q 981 309 981 313 q 960 290 974 304 q 970 277 966 283 q 981 263 974 270 q 971 252 975 258 q 962 240 967 247 q 960 221 962 231 q 955 201 959 212 q 955 161 955 179 q 954 133 954 142 q 958 115 955 127 q 966 85 960 106 q 981 71 970 81 q 990 53 983 65 q 997 37 993 47 q 998 0 997 24 q 827 0 941 0 q 827 24 827 8 q 852 61 836 37 q 859 72 854 66 q 867 81 863 77 z "},"n":{"ha":639,"x_min":30,"x_max":610,"o":"m 477 81 q 486 115 480 94 q 494 140 488 123 q 491 278 492 186 q 454 384 488 339 q 372 454 420 429 q 343 464 362 460 q 312 468 326 468 q 256 463 285 468 q 201 444 228 457 q 201 134 201 340 q 205 117 202 129 q 212 85 206 107 q 225 71 216 81 q 235 53 228 65 q 241 37 237 47 q 244 0 243 24 q 71 0 187 0 q 71 23 71 8 q 94 60 79 35 q 111 80 99 66 q 115 115 113 92 q 125 141 118 123 q 132 205 127 163 q 132 420 132 277 q 123 448 129 430 q 125 480 123 458 q 110 502 119 487 q 30 537 83 514 q 30 563 30 545 q 203 563 88 563 q 203 536 203 553 q 289 555 247 553 q 373 541 332 555 q 373 543 373 541 q 374 543 374 543 q 385 549 380 545 q 397 557 391 553 q 408 553 401 556 q 419 551 414 552 q 416 541 418 545 q 414 529 415 536 q 423 521 416 526 q 433 528 427 525 q 445 534 438 530 q 456 526 450 530 q 465 518 460 522 q 461 509 464 513 q 458 500 460 505 q 464 498 461 499 q 468 496 467 496 q 476 500 472 498 q 487 505 481 502 q 505 486 492 498 q 500 479 502 483 q 496 468 499 475 q 499 464 498 467 q 503 460 500 461 q 513 463 507 461 q 524 467 518 465 q 538 453 529 463 q 532 444 534 449 q 526 435 530 439 q 530 429 529 431 q 534 422 533 426 q 543 422 538 422 q 552 423 548 423 q 557 416 555 419 q 564 408 562 412 q 557 400 560 404 q 551 391 555 396 q 553 384 552 387 q 556 377 555 380 q 566 377 562 377 q 576 378 571 377 q 581 372 579 374 q 583 365 583 369 q 576 354 579 359 q 568 343 572 349 q 578 330 568 331 q 590 323 586 328 q 591 316 590 319 q 591 309 591 313 q 572 290 586 304 q 582 277 578 283 q 591 263 586 270 q 583 252 587 258 q 574 240 579 247 q 571 221 572 231 q 567 201 570 212 q 566 161 567 179 q 566 133 566 142 q 570 115 567 127 q 576 85 572 106 q 591 71 582 81 q 602 53 595 65 q 609 37 604 47 q 610 0 609 24 q 439 0 553 0 q 439 24 439 8 q 463 61 448 37 q 471 72 467 66 q 477 81 475 77 z "},"o":{"ha":694,"x_min":22,"x_max":671,"o":"m 671 248 q 658 247 665 247 q 643 244 651 245 q 642 237 643 240 q 640 228 640 233 q 654 225 648 227 q 669 221 661 222 q 666 209 667 214 q 665 195 665 203 q 646 194 655 195 q 628 191 637 193 q 628 183 628 187 q 628 176 628 179 q 642 171 635 174 q 656 165 648 167 q 651 152 654 157 q 646 140 648 146 q 628 138 637 140 q 612 136 620 137 q 608 129 610 132 q 605 122 606 125 q 616 115 610 118 q 628 107 621 111 q 624 96 627 102 q 617 83 621 90 q 601 85 608 84 q 587 88 593 87 q 575 71 570 80 q 579 52 581 61 q 567 50 572 50 q 557 49 560 49 q 514 23 536 37 q 472 1 494 11 q 347 -30 410 -30 q 323 -30 335 -30 q 184 16 248 -22 q 167 27 175 20 q 148 39 159 33 q 137 41 145 39 q 121 45 130 43 q 118 52 119 47 q 115 61 117 57 q 114 69 115 65 q 113 79 114 73 q 95 79 103 79 q 75 81 85 80 q 77 103 75 94 q 80 125 79 113 q 68 129 75 127 q 50 133 60 130 q 45 142 49 137 q 38 156 42 149 q 47 161 43 157 q 58 168 53 164 q 58 174 58 171 q 58 182 58 178 q 45 184 52 183 q 31 189 39 186 q 28 203 30 195 q 27 217 28 210 q 38 222 34 220 q 47 227 43 225 q 45 232 46 229 q 43 237 45 236 q 33 241 38 239 q 22 245 27 243 q 22 259 22 252 q 22 275 22 267 q 31 278 26 277 q 43 282 37 281 q 43 289 43 286 q 45 296 45 292 q 35 300 39 297 q 23 307 30 302 q 23 316 23 311 q 23 328 23 321 q 35 331 28 328 q 47 334 42 332 q 50 350 56 343 q 35 362 43 355 q 35 373 35 368 q 37 384 35 377 q 50 385 43 384 q 65 388 57 387 q 68 393 66 391 q 71 400 69 397 q 61 408 66 406 q 50 418 57 412 q 53 426 52 422 q 56 433 54 430 q 71 435 64 434 q 85 438 77 437 q 88 456 94 446 q 83 472 83 464 q 88 477 85 473 q 92 483 91 480 q 107 483 99 483 q 123 483 114 483 q 126 500 125 492 q 130 519 129 509 q 144 521 137 519 q 161 522 152 522 q 214 557 184 543 q 283 576 244 571 q 342 581 313 581 q 397 576 370 581 q 498 538 452 568 q 526 521 513 529 q 557 500 541 511 q 562 491 560 498 q 567 479 564 486 q 586 479 576 479 q 604 477 594 477 q 610 471 608 475 q 616 463 613 467 q 606 453 612 457 q 594 442 601 448 q 600 437 597 439 q 604 430 601 433 q 618 431 612 431 q 633 433 625 431 q 637 425 635 430 q 643 416 640 420 q 632 407 636 411 q 621 397 627 401 q 623 389 621 393 q 625 380 624 385 q 642 380 633 380 q 658 377 648 378 q 661 366 659 372 q 662 355 662 361 q 650 350 655 353 q 636 343 643 347 q 639 336 637 339 q 640 330 640 332 q 655 326 648 328 q 670 321 662 324 q 670 313 670 317 q 670 302 670 309 q 658 298 665 301 q 644 292 652 296 q 644 285 644 289 q 644 277 644 281 q 658 274 651 275 q 671 271 665 273 q 671 260 671 266 q 671 248 671 255 m 133 277 q 195 126 133 189 q 347 62 258 62 q 498 126 435 62 q 560 277 560 189 q 498 427 560 365 q 347 490 435 490 q 195 427 258 490 q 133 277 133 365 z "},"p":{"ha":528,"x_min":22,"x_max":503,"o":"m 475 298 q 492 293 483 296 q 503 286 502 289 q 503 278 503 283 q 494 271 503 274 q 476 266 484 267 q 475 250 475 258 q 472 235 473 241 q 487 225 480 231 q 494 217 494 220 q 490 209 492 214 q 481 203 490 205 q 464 203 472 203 q 457 189 461 195 q 452 174 454 180 q 463 160 457 167 q 467 152 468 153 q 463 142 465 149 q 452 141 460 140 q 435 144 444 142 q 426 132 430 138 q 415 121 420 126 q 423 104 419 114 q 425 95 427 96 q 418 88 423 92 q 407 90 416 85 q 391 98 399 94 q 378 90 385 94 q 366 80 373 84 q 370 61 369 72 q 369 50 373 52 q 361 46 366 49 q 351 52 359 45 q 336 64 342 57 q 323 57 330 61 q 309 52 317 54 q 308 33 309 42 q 304 22 308 23 q 296 19 301 22 q 288 24 293 19 q 278 39 282 31 q 270 37 274 38 q 259 34 264 34 q 250 0 256 22 q 191 0 231 0 q 191 90 191 30 q 332 161 283 109 q 385 300 381 213 q 349 391 377 358 q 278 435 320 422 q 208 435 254 435 q 163 395 193 422 q 163 -144 163 216 q 167 -161 164 -149 q 174 -191 170 -171 q 189 -206 179 -195 q 198 -224 193 -212 q 206 -240 201 -229 q 208 -277 206 -252 q 80 -277 165 -277 q 56 -277 72 -277 q 22 -277 45 -277 q 22 -252 22 -269 q 46 -216 30 -240 q 61 -195 52 -209 q 66 -161 62 -183 q 75 -136 69 -153 q 75 353 75 27 q 61 357 71 354 q 60 384 60 370 q 61 410 60 396 q 95 418 72 412 q 64 479 84 438 q 47 494 58 487 q 23 509 37 500 q 23 555 23 524 q 225 555 91 555 q 232 526 228 545 q 275 526 247 526 q 285 541 281 533 q 293 547 290 548 q 301 544 296 547 q 305 534 305 544 q 307 517 307 526 q 321 511 315 514 q 336 506 328 509 q 350 517 343 511 q 359 521 358 522 q 368 517 362 519 q 370 506 372 514 q 366 488 369 498 q 380 479 374 484 q 393 469 387 475 q 408 476 400 473 q 418 477 416 480 q 425 471 420 476 q 425 461 427 469 q 416 446 420 453 q 427 433 422 439 q 437 419 431 427 q 453 422 445 422 q 463 420 461 423 q 467 412 464 418 q 463 403 468 411 q 452 391 457 396 q 457 376 454 382 q 463 361 460 369 q 480 359 472 359 q 490 355 490 358 q 494 347 491 353 q 486 339 494 345 q 471 330 479 335 q 473 315 472 321 q 475 298 473 307 z "},"q":{"ha":612,"x_min":42,"x_max":579,"o":"m 71 300 q 72 315 72 308 q 75 330 73 323 q 60 340 66 335 q 52 347 52 346 q 56 357 53 350 q 65 359 56 359 q 83 362 73 361 q 88 376 85 369 q 94 391 91 384 q 83 404 88 397 q 79 414 77 411 q 83 422 80 416 q 92 423 84 423 q 109 420 100 422 q 118 434 114 427 q 129 446 123 439 q 121 461 125 453 q 121 472 118 469 q 127 479 122 473 q 137 477 129 480 q 152 471 145 475 q 165 480 159 475 q 179 490 171 484 q 175 506 176 498 q 178 517 174 515 q 186 521 180 518 q 195 517 187 522 q 209 506 202 513 q 224 513 217 509 q 239 517 231 515 q 240 536 239 526 q 244 545 240 544 q 252 548 247 545 q 260 541 255 549 q 270 526 264 534 q 313 526 285 526 q 320 555 316 536 q 522 555 388 555 q 522 509 522 540 q 498 494 509 502 q 481 480 487 487 q 450 419 471 460 q 484 410 463 416 q 486 384 486 396 q 484 358 486 372 q 471 353 480 357 q 471 -134 471 191 q 479 -161 473 -144 q 484 -194 480 -172 q 499 -214 490 -201 q 579 -251 526 -227 q 579 -277 579 -259 q 490 -277 549 -277 q 465 -277 481 -277 q 382 -277 437 -277 q 382 395 382 -53 q 338 435 368 408 q 267 435 315 435 q 197 391 225 423 q 160 301 168 359 q 213 161 164 214 q 354 90 262 110 q 354 0 354 60 q 296 0 334 0 q 285 34 292 12 q 275 37 281 35 q 267 39 271 38 q 258 26 263 33 q 250 20 252 19 q 241 23 247 20 q 237 33 237 24 q 236 52 236 42 q 222 58 228 56 q 209 65 216 61 q 194 52 203 58 q 184 46 186 45 q 176 50 182 47 q 175 62 172 52 q 179 81 176 73 q 167 90 172 85 q 155 98 160 94 q 138 90 146 94 q 127 88 129 85 q 121 95 125 91 q 122 106 118 98 q 130 121 126 114 q 119 133 125 126 q 110 145 115 138 q 94 141 102 142 q 83 144 85 141 q 79 152 81 146 q 83 161 77 155 q 94 174 88 168 q 88 189 91 182 q 81 203 84 197 q 64 205 73 203 q 56 209 56 206 q 52 217 54 212 q 58 225 52 220 q 73 235 65 231 q 71 251 72 243 q 69 266 71 259 q 52 271 61 269 q 42 278 42 275 q 42 282 42 281 q 42 286 42 285 q 53 293 43 290 q 71 300 62 296 z "},"r":{"ha":555,"x_min":26,"x_max":524,"o":"m 449 533 q 524 464 473 510 q 510 431 519 453 q 450 441 490 435 q 393 460 422 454 q 339 465 366 465 q 307 461 326 465 q 279 452 289 457 q 197 381 231 426 q 160 275 161 336 q 160 0 160 183 q 26 0 115 0 q 26 24 26 8 q 54 58 35 37 q 69 79 60 65 q 76 113 72 91 q 84 138 79 121 q 84 160 84 149 q 84 180 84 170 q 84 193 84 187 q 84 198 84 198 q 84 218 85 209 q 77 237 81 228 q 69 250 73 244 q 60 259 65 255 q 71 274 66 267 q 79 288 75 281 q 60 307 73 294 q 61 313 60 311 q 61 320 61 316 q 75 327 65 326 q 83 340 83 328 q 76 351 79 346 q 68 362 72 357 q 71 369 69 366 q 75 374 73 372 q 85 374 81 374 q 96 373 91 373 q 98 381 96 377 q 102 388 99 384 q 95 397 98 393 q 88 406 92 401 q 94 414 91 410 q 100 420 96 416 q 109 419 104 420 q 117 419 114 418 q 121 426 119 423 q 125 431 123 429 q 119 441 122 437 q 114 450 117 446 q 127 464 118 454 q 140 460 134 461 q 149 457 144 458 q 152 461 151 458 q 156 465 153 464 q 151 476 152 472 q 148 483 149 480 q 165 502 153 490 q 175 498 171 499 q 183 494 180 495 q 189 495 186 494 q 193 498 191 496 q 190 506 193 502 q 186 515 189 510 q 197 524 191 519 q 208 532 202 528 q 218 525 213 528 q 229 518 224 522 q 237 526 232 521 q 236 538 236 533 q 236 548 236 544 q 247 552 243 551 q 254 555 250 553 q 267 547 262 551 q 278 540 273 543 q 279 538 278 540 q 362 552 320 552 q 449 533 404 551 z "},"s":{"ha":639,"x_min":38,"x_max":602,"o":"m 593 273 q 602 227 602 250 q 591 180 602 203 q 570 160 590 182 q 547 136 549 138 q 534 122 538 130 q 525 104 529 114 q 524 90 524 96 q 522 75 522 83 q 505 73 513 75 q 488 69 496 71 q 488 42 488 60 q 484 38 487 39 q 479 34 481 35 q 464 38 472 33 q 449 35 457 43 q 446 22 448 28 q 444 8 444 16 q 437 5 439 7 q 429 4 433 5 q 422 12 425 9 q 415 19 419 15 q 408 16 412 19 q 401 14 406 15 q 399 3 400 8 q 399 -8 399 -3 q 389 -8 393 -8 q 378 -9 384 -8 q 374 -3 377 -7 q 368 3 372 1 q 361 1 363 1 q 353 0 357 1 q 350 -11 351 -5 q 347 -20 349 -16 q 328 -20 340 -20 q 323 -9 324 -15 q 317 -1 320 -5 q 312 -3 315 -1 q 307 -3 309 -3 q 302 -12 305 -9 q 300 -20 301 -16 q 275 -20 292 -20 q 271 -11 273 -16 q 267 -3 269 -7 q 263 -1 266 -1 q 258 1 260 0 q 254 -7 256 -3 q 250 -16 252 -11 q 236 -15 244 -16 q 224 -14 229 -15 q 221 -1 222 -7 q 218 11 218 5 q 206 11 214 11 q 198 1 202 5 q 191 -5 194 -3 q 182 -1 186 -4 q 175 3 179 1 q 171 18 172 11 q 168 30 170 24 q 168 31 168 30 q 100 80 130 49 q 53 155 72 110 q 103 153 69 153 q 149 148 140 152 q 178 126 159 145 q 202 107 187 117 q 229 95 218 98 q 338 85 282 77 q 438 134 393 94 q 502 197 460 156 q 321 233 441 209 q 49 233 231 233 q 38 279 38 256 q 49 326 38 302 q 71 346 49 324 q 92 369 91 368 q 106 384 102 376 q 115 401 111 392 q 117 416 117 410 q 118 430 118 423 q 136 433 127 430 q 151 437 142 435 q 151 464 151 445 q 156 468 153 467 q 161 472 159 471 q 176 468 168 473 q 191 471 183 463 q 194 483 193 477 q 197 498 197 490 q 203 500 201 499 q 212 502 206 500 q 218 494 216 496 q 225 486 221 490 q 231 488 228 487 q 239 491 235 491 q 240 503 240 498 q 241 514 241 507 q 251 514 247 514 q 260 515 256 514 q 266 509 263 513 q 273 503 269 503 q 279 505 277 503 q 288 506 283 505 q 290 515 289 511 q 293 526 292 521 q 312 526 300 526 q 317 515 316 519 q 321 507 320 511 q 328 507 326 507 q 334 509 330 509 q 338 518 335 514 q 340 526 339 522 q 365 526 349 526 q 369 517 368 521 q 372 509 372 513 q 377 506 374 507 q 381 505 380 505 q 387 513 384 509 q 391 522 388 517 q 403 521 396 521 q 416 519 410 521 q 419 506 418 513 q 422 495 420 500 q 433 495 426 495 q 441 503 437 499 q 449 511 445 509 q 458 507 454 509 q 465 503 461 505 q 468 488 467 495 q 472 476 469 481 q 472 475 472 476 q 538 426 510 456 q 587 351 568 395 q 537 353 571 351 q 491 357 500 354 q 463 380 481 361 q 437 399 453 388 q 411 411 422 408 q 302 420 358 427 q 201 370 245 412 q 141 311 182 351 q 323 281 202 301 q 458 277 391 278 q 593 273 525 274 z "},"t":{"ha":444,"x_min":27,"x_max":418,"o":"m 271 538 q 388 538 309 538 q 392 540 389 538 q 396 543 393 541 q 407 560 400 549 q 415 571 415 570 q 414 509 415 538 q 418 452 411 479 q 418 450 418 450 q 414 442 418 445 q 404 442 410 438 q 392 450 397 446 q 382 458 388 456 q 380 460 382 460 q 376 461 378 461 q 271 461 340 461 q 271 125 271 349 q 273 107 275 115 q 278 96 270 100 q 289 60 282 84 q 296 47 292 56 q 311 38 301 43 q 311 0 311 24 q 133 0 252 0 q 133 35 133 12 q 160 53 142 41 q 165 79 161 61 q 178 106 170 88 q 178 461 178 224 q 69 461 141 461 q 66 460 68 461 q 62 458 65 460 q 53 450 58 454 q 42 442 47 446 q 31 441 37 438 q 27 448 27 444 q 27 452 27 449 q 33 509 34 479 q 30 571 30 540 q 38 560 31 570 q 50 543 46 549 q 53 540 52 541 q 58 538 56 538 q 178 538 98 538 q 178 591 178 556 q 175 600 176 595 q 172 609 175 604 q 163 620 167 614 q 155 631 160 625 q 164 644 160 637 q 174 658 168 651 q 155 678 167 665 q 155 684 155 681 q 156 690 156 688 q 168 699 160 697 q 178 711 178 700 q 271 667 209 696 q 271 602 271 635 q 271 538 271 571 z "},"u":{"ha":666,"x_min":28,"x_max":639,"o":"m 473 552 q 639 552 529 552 q 637 515 637 540 q 629 499 635 510 q 620 480 627 492 q 612 465 617 476 q 605 437 609 456 q 601 420 604 431 q 601 281 601 347 q 601 216 601 216 q 585 145 601 178 q 549 95 568 113 q 548 84 549 91 q 545 69 545 77 q 537 68 541 68 q 529 65 533 66 q 522 64 526 64 q 514 62 518 64 q 513 46 514 54 q 511 27 513 38 q 492 31 500 28 q 472 34 483 33 q 469 22 471 28 q 465 7 468 15 q 456 1 461 5 q 445 -4 452 -1 q 439 4 442 0 q 434 14 437 8 q 429 14 431 14 q 422 14 426 14 q 419 1 420 8 q 415 -11 418 -4 q 403 -12 410 -12 q 389 -14 396 -12 q 385 -4 387 -8 q 381 4 382 0 q 376 3 378 3 q 372 0 373 1 q 368 -9 370 -4 q 365 -19 366 -14 q 351 -19 358 -19 q 338 -19 345 -19 q 335 -11 336 -15 q 331 0 332 -7 q 326 1 328 0 q 320 1 323 1 q 316 -7 317 -3 q 311 -18 313 -12 q 301 -18 307 -18 q 290 -18 296 -18 q 288 -7 289 -12 q 285 4 286 -1 q 271 5 277 11 q 260 -7 266 0 q 251 -7 255 -7 q 240 -5 245 -7 q 239 7 240 1 q 236 19 237 12 q 232 22 235 20 q 225 24 228 23 q 217 16 221 20 q 210 7 214 12 q 202 9 206 8 q 197 11 199 9 q 194 24 195 19 q 193 38 193 31 q 176 39 183 45 q 161 37 168 35 q 156 41 159 38 q 152 45 153 42 q 152 57 152 50 q 152 72 152 64 q 136 75 144 73 q 118 77 127 77 q 118 91 118 84 q 115 106 117 98 q 85 153 98 126 q 66 216 72 180 q 65 266 65 229 q 65 340 65 304 q 66 387 65 366 q 66 418 66 408 q 62 437 65 425 q 56 465 61 446 q 47 480 53 471 q 38 499 43 487 q 30 515 35 505 q 28 552 30 528 q 194 552 84 552 q 194 526 194 543 q 170 490 186 514 q 155 469 164 483 q 149 437 153 458 q 141 411 146 427 q 144 274 141 365 q 199 138 144 194 q 335 81 256 81 q 471 138 414 81 q 526 274 526 194 q 526 410 526 319 q 518 437 524 419 q 513 469 517 448 q 498 490 507 476 q 473 526 490 502 q 473 538 473 533 q 473 552 473 545 z "},"v":{"ha":667,"x_min":34,"x_max":633,"o":"m 633 555 q 633 528 633 547 q 589 496 612 525 q 543 423 566 468 q 456 217 499 338 q 368 0 411 96 q 301 0 346 0 q 83 492 229 164 q 34 555 66 514 q 144 555 71 555 q 225 513 171 541 q 203 460 208 505 q 209 389 201 414 q 357 107 258 294 q 509 488 407 235 q 464 524 475 505 q 439 555 453 541 q 536 555 488 555 q 633 555 585 555 z "},"w":{"ha":779,"x_min":31,"x_max":747,"o":"m 195 556 q 195 496 195 536 q 160 468 184 487 q 240 155 187 363 q 389 552 290 286 q 540 138 439 414 q 633 467 571 248 q 590 513 618 481 q 590 556 590 526 q 747 556 643 556 q 747 498 747 536 q 686 468 727 487 q 543 0 639 312 q 488 0 525 0 q 377 330 452 110 q 250 0 334 220 q 199 0 233 0 q 68 468 156 156 q 31 491 56 476 q 31 556 31 513 q 195 556 85 556 z "},"x":{"ha":610,"x_min":27,"x_max":583,"o":"m 552 41 q 583 24 562 35 q 583 0 583 16 q 479 0 548 0 q 305 221 422 73 q 132 0 248 148 q 27 0 98 0 q 27 24 27 8 q 60 41 38 30 q 258 282 126 121 q 75 515 197 359 q 42 529 64 519 q 27 557 37 538 q 201 557 85 557 q 201 529 201 548 q 161 515 189 525 q 305 339 209 457 q 450 515 354 397 q 410 529 437 519 q 410 557 410 538 q 583 557 468 557 q 570 529 579 548 q 536 515 559 525 q 353 282 475 438 q 552 41 419 201 z "},"y":{"ha":779,"x_min":27,"x_max":750,"o":"m 576 562 q 750 562 635 562 q 736 533 746 552 q 703 519 726 529 q 612 292 656 406 q 519 64 566 178 q 521 61 519 62 q 522 57 521 60 q 532 45 528 50 q 540 35 534 39 q 530 20 534 27 q 521 7 526 14 q 538 -12 526 0 q 538 -19 538 -16 q 537 -24 537 -22 q 525 -33 533 -31 q 515 -46 515 -34 q 524 -57 519 -52 q 530 -68 526 -62 q 528 -75 529 -71 q 524 -80 526 -77 q 513 -79 517 -80 q 503 -79 509 -79 q 500 -85 502 -83 q 498 -94 499 -90 q 505 -103 502 -98 q 511 -111 507 -107 q 505 -119 509 -115 q 499 -126 502 -122 q 490 -125 495 -125 q 481 -125 486 -123 q 477 -132 480 -127 q 473 -137 476 -134 q 479 -146 476 -141 q 484 -156 481 -152 q 471 -170 480 -160 q 460 -165 465 -167 q 450 -163 454 -164 q 446 -167 448 -164 q 444 -171 445 -168 q 448 -182 446 -178 q 452 -189 449 -186 q 433 -208 445 -195 q 423 -203 429 -205 q 415 -198 418 -201 q 411 -201 414 -199 q 406 -203 408 -202 q 408 -212 407 -208 q 412 -221 411 -216 q 401 -229 407 -225 q 392 -237 397 -233 q 380 -231 385 -233 q 369 -224 374 -228 q 361 -232 366 -227 q 362 -244 362 -239 q 362 -254 362 -250 q 353 -258 357 -256 q 345 -259 349 -259 q 331 -252 338 -255 q 321 -245 326 -248 q 320 -244 320 -245 q 236 -258 279 -258 q 151 -239 194 -256 q 27 -176 110 -218 q 42 -144 33 -165 q 148 -161 77 -151 q 203 -180 175 -176 q 258 -186 231 -186 q 290 -182 271 -186 q 317 -172 309 -178 q 396 -103 363 -149 q 437 -1 429 -56 q 423 66 431 22 q 241 519 363 217 q 209 533 231 524 q 194 562 203 543 q 368 562 252 562 q 368 533 368 552 q 328 519 354 529 q 472 121 376 387 q 617 519 521 254 q 576 533 604 524 q 576 547 576 540 q 576 562 576 555 z "},"z":{"ha":639,"x_min":35,"x_max":600,"o":"m 600 430 q 403 236 510 323 q 167 81 296 148 q 251 37 201 49 q 354 27 301 23 q 496 66 433 33 q 560 152 560 102 q 598 152 574 152 q 598 81 598 129 q 598 0 598 54 q 321 -38 461 -38 q 35 0 180 -38 q 35 92 35 31 q 294 241 182 156 q 471 445 408 327 q 308 487 395 491 q 127 445 221 483 q 84 414 99 431 q 73 377 69 397 q 35 377 61 377 q 35 445 35 399 q 145 528 72 472 q 161 528 151 528 q 161 545 161 534 q 165 551 163 548 q 171 555 168 552 q 186 549 178 555 q 201 553 193 544 q 203 566 202 559 q 206 579 206 572 q 213 582 210 582 q 221 583 217 582 q 228 575 225 578 q 235 568 231 572 q 241 571 237 570 q 248 574 244 572 q 250 585 250 581 q 251 595 251 590 q 260 595 256 595 q 270 597 266 597 q 275 590 273 594 q 282 585 278 586 q 289 586 286 586 q 297 587 293 586 q 300 598 298 593 q 302 609 301 604 q 321 609 309 609 q 327 598 326 602 q 331 589 330 593 q 338 590 335 589 q 343 590 339 590 q 347 601 345 597 q 350 609 349 604 q 374 609 358 609 q 378 598 377 604 q 381 590 381 594 q 387 589 384 589 q 392 586 389 587 q 396 594 393 590 q 400 604 397 600 q 412 602 406 604 q 426 601 420 602 q 429 589 427 594 q 431 576 430 583 q 442 576 435 576 q 450 586 446 582 q 458 593 454 590 q 468 589 464 591 q 475 585 471 587 q 479 567 477 576 q 481 557 481 557 q 507 544 495 551 q 530 526 519 536 q 600 473 553 509 q 600 452 600 463 q 600 430 600 441 z "},"{":{"ha":334,"x_min":33,"x_max":301,"o":"m 33 517 q 113 585 58 540 q 113 1047 113 739 q 301 1085 175 1059 q 252 1001 285 1057 q 186 1000 231 1001 q 186 566 186 854 q 129 517 167 549 q 186 469 148 500 q 186 0 186 313 q 252 -1 209 0 q 300 -81 269 -28 q 115 -37 239 -66 q 114 450 115 126 q 33 517 87 472 z "},"|":{"ha":222,"x_min":28,"x_max":195,"o":"m 148 1047 q 145 61 146 719 q 195 -81 161 14 q 73 0 155 -54 q 73 1000 73 334 q 28 1085 58 1028 q 88 1066 58 1076 q 148 1047 118 1057 z "},"}":{"ha":334,"x_min":33,"x_max":301,"o":"m 220 450 q 218 -37 220 288 q 34 -81 156 -52 q 80 -1 49 -56 q 148 0 103 -1 q 148 469 148 156 q 205 517 167 486 q 148 566 186 533 q 148 1000 148 711 q 80 1001 125 1001 q 33 1085 65 1029 q 221 1047 95 1073 q 221 585 221 892 q 301 517 248 562 q 220 450 274 495 z "},"~":{"ha":445,"x_min":27,"x_max":416,"o":"m 416 496 q 320 366 384 453 q 186 449 275 393 q 141 453 164 458 q 103 427 118 448 q 72 388 92 414 q 27 441 57 406 q 125 548 60 477 q 258 465 170 521 q 304 460 281 454 q 342 486 327 467 q 372 526 351 499 q 395 511 384 519 q 416 496 406 505 z "},"":{"ha":222,"x_min":27,"x_max":194,"o":"m 95 1002 q 95 808 95 937 q 80 750 90 789 q 50 750 71 750 q 27 808 43 770 q 27 1002 27 873 q 95 1002 50 1002 m 194 1001 q 194 807 194 936 q 179 749 190 788 q 151 749 170 749 q 127 807 142 769 q 127 1001 127 872 q 194 1001 149 1001 z "},"":{"ha":361,"x_min":24,"x_max":332,"o":"m 193 972 q 111 798 165 914 q 46 746 90 780 q 24 772 38 755 q 56 823 34 789 q 137 998 83 882 q 193 972 156 989 m 332 971 q 250 796 305 913 q 184 746 228 780 q 163 772 178 754 q 194 823 174 788 q 275 998 221 882 q 332 971 294 989 z "},"":{"ha":361,"x_min":24,"x_max":332,"o":"m 193 972 q 111 798 165 914 q 46 746 90 780 q 24 772 38 755 q 56 823 34 789 q 137 998 83 882 q 193 972 156 989 m 332 971 q 250 796 305 913 q 184 746 228 780 q 163 772 178 754 q 194 823 174 788 q 275 998 221 882 q 332 971 294 989 z "},"":{"ha":361,"x_min":24,"x_max":332,"o":"m 193 972 q 111 798 165 914 q 46 746 90 780 q 24 772 38 755 q 56 823 34 789 q 137 998 83 882 q 193 972 156 989 m 332 971 q 250 796 305 913 q 184 746 228 780 q 163 772 178 754 q 194 823 174 788 q 275 998 221 882 q 332 971 294 989 z "},"":{"ha":361,"x_min":24,"x_max":332,"o":"m 218 998 q 300 823 245 940 q 332 772 311 806 q 309 746 324 764 q 244 798 288 764 q 163 972 217 856 q 218 998 182 981 m 80 998 q 161 823 107 940 q 193 772 172 806 q 171 746 186 764 q 106 796 149 762 q 24 971 79 854 q 80 998 42 981 z "},"":{"ha":222,"x_min":27,"x_max":194,"o":"m 27 507 q 194 507 69 507 q 194 563 194 521 q 27 563 153 563 q 27 507 27 548 z "},"":{"ha":167,"x_min":0,"x_max":167,"o":"m 0 507 q 167 507 42 507 q 167 563 167 521 q 0 563 125 563 q 0 507 0 548 z "},"":{"ha":361,"x_min":27,"x_max":334,"o":"m 27 507 q 334 507 104 507 q 334 563 334 521 q 27 563 256 563 q 27 507 27 548 z "},"":{"ha":361,"x_min":27,"x_max":334,"o":"m 27 507 q 334 507 104 507 q 334 563 334 521 q 27 563 256 563 q 27 507 27 548 z "},"":{"ha":445,"x_min":28,"x_max":416,"o":"m 28 507 q 416 507 125 507 q 416 563 416 521 q 28 563 320 563 q 28 507 28 548 z "},"":{"ha":140,"x_min":20,"x_max":121,"o":"m 121 1001 q 121 808 121 937 q 50 735 98 784 q 20 749 41 739 q 27 808 23 769 q 27 1001 27 872 q 121 1001 58 1001 z "},"":{"ha":251,"x_min":30,"x_max":220,"o":"m 151 734 q 151 926 151 798 q 189 1000 164 951 q 220 986 199 996 q 213 926 217 966 q 213 734 213 863 q 151 734 193 734 m 30 734 q 30 926 30 798 q 68 1000 42 951 q 98 986 77 996 q 91 926 96 966 q 91 734 91 863 q 30 734 71 734 z "},"":{"ha":251,"x_min":30,"x_max":220,"o":"m 98 1000 q 98 807 98 936 q 60 734 85 783 q 30 747 50 738 q 37 807 31 768 q 37 1000 37 871 q 98 1000 57 1000 m 220 1000 q 220 807 220 936 q 182 734 206 783 q 151 747 171 738 q 157 807 153 768 q 157 1000 157 871 q 220 1000 179 1000 z "}}}
